<svg xmlns="http://www.w3.org/2000/svg" shape-rendering="geometricPrecision" text-rendering="geometricPrecision" image-rendering="optimizeQuality" fill-rule="evenodd" clip-rule="evenodd" viewBox="0 0 512 356.18"><g fill-rule="nonzero"><path fill="red" d="M28.137 0H483.86C499.337 0 512 12.663 512 28.14v299.9c0 15.477-12.663 28.14-28.14 28.14H28.137C12.663 356.18 0 343.517 0 328.04V28.14C0 12.663 12.663 0 28.137 0z"/><path d="M220.447 69.242c-3.462-.058-9.211 1.104-9.082 3.763-9.647-1.654-10.651 2.332-10.084 5.877.917-1.408 2.035-2.172 2.893-2.316 1.288-.213 2.633.202 4.008 1.047 1.375.844 2.889 2.207 3.562 3.049-3.405.814-6.035.289-8.705-.178-1.315-.231-3.157-.97-4.252-1.736-1.095-.766-1.439-1.488-3.16-3.251-2.03-2.079-4.191-1.493-3.518 1.736 1.557 3 4.158 4.339 7.435 4.876 1.577.26 3.927.822 6.59.824 2.663.003 5.653-.385 7.279-.045-.977.615-2.082 1.672-4.274 2.093-2.228.428-5.615-1.325-7.68-1.803.262 1.737 2.453 3.361 6.768 4.207 7.089 1.544 12.979 2.717 16.874 4.832 3.894 2.113 6.35 4.76 8.102 6.834 3.491 4.126 3.674 7.294 3.897 7.991.718 6.594-1.582 10.303-5.855 11.442-2.136.571-5.933-.503-7.324-2.136-1.392-1.634-2.746-4.441-2.36-8.838.375-1.725 2.347-6.217.668-7.146-7.738-4.277-17.133-8.602-23.932-11.175-1.857-.703-3.388 1.822-3.983 2.805-11.549-1.406-21.961-9.221-26.648-17.542-3.192-5.668-8.454.012-7.569 5.364 1.428 5.976 5.981 10.296 11.443 13.357 5.605 3.087 12.612 6.125 19.702 5.966 3.818.723 3.78 5.664-.802 6.59-8.963.056-16.112-.167-22.863-6.678-5.12-4.675-8.003.895-6.523 4.051 2.508 9.73 16.39 12.454 30.432 9.306 5.438-.901 2.181 4.926.645 4.986-5.867 4.207-16.372 8.324-25.623-.045-4.233-3.24-7.095-.516-5.52 4.164 4.105 12.201 19.807 9.639 30.587 3.628 2.775-1.547 5.293 2.052 1.914 4.787-13.407 9.367-20.11 9.474-26.157 5.876-7.571-2.985-8.236 5.412-3.74 8.171 4.998 3.066 17.716.768 27.048-5.098 3.999-2.974 4.181 1.677 1.647 3.518-11.073 9.569-15.437 12.089-26.981 10.529-5.724-.446-5.638 6.611-1.135 9.372 6.147 3.77 18.153-2.487 27.471-10.218 3.921-2.095 4.565 1.341 2.627 5.41-5.695 7.182-11.038 11.418-16.185 13.38-5.147 1.96-10.099 1.648-13.602.445-4.274-1.47-4.81 2.972-2.448 7.012 1.423 2.434 7.323 3.215 13.69.957 6.367-2.258 13.205-7.553 17.899-13.758 4.084-3.575 3.576 1.228 1.713 4.608-9.399 14.859-17.995 20.371-29.317 19.435-5.021-.853-6.161 3.05-2.961 6.655 5.619 4.661 12.644 4.514 18.788-.088 5.463-5.267 15.913-16.608 21.394-22.685 3.862-3.079 5.096-.043 3.963 6.211-1.031 3.582-3.611 7.354-10.642 10.106-4.802 2.742-1.195 6.52 2.405 6.59 1.982.039 6.005-2.278 9.082-5.743 4.049-4.56 4.29-7.621 6.524-14.715 2.108-3.458 5.875-1.844 5.875 1.781-1.805 7.105-3.358 8.38-7.012 11.287-3.493 3.279 2.434 4.373 4.431 3.027 5.778-3.895 7.887-8.932 9.817-13.512 1.394-3.307 5.437-1.704 3.562 3.694-4.479 12.904-11.835 17.984-24.711 20.593-1.304.231-2.1 1.002-1.646 2.516 1.728 1.793 3.458 3.421 5.186 5.208-7.961 2.319-14.428 3.62-22.395 5.945-3.908-2.563-7.066-4.736-10.975-7.302-1.031-2.409-1.51-6.087-7.279-3.495-3.909-1.806-5.712-1.143-7.881.668 3.132.117 4.494.955 5.721 2.382 1.603 4.221 5.3 4.629 9.083 3.429 2.461 2.073 3.772 3.663 6.234 5.742-4.595-.157-7.796-.238-12.378-.378-4.374-4.697-7.866-4.44-10.998-.757-2.385.368-3.398.418-5.03 3.318 2.568-1.055 4.184-1.37 5.297-.224 4.652 2.697 7.69 2.096 9.996 0 4.487.276 8.531.507 13.023.802-1.65 1.404-3.915 2.148-5.565 3.563-6.74-1.929-10.257.667-11.443 6.166-.903 2.22-1.327 4.505-.935 6.879.653-2.172 1.702-4.039 3.629-5.21 6.006 1.526 8.266-.926 8.592-4.519 2.896-2.362 7.262-2.883 10.151-5.276 3.379 1.082 5.013 1.752 8.415 2.828 1.21 3.677 3.948 5.132 8.393 4.185 5.291.166 4.357 2.337 4.786 4.074 1.407-2.494 1.368-4.92-1.892-7.124-1.186-3.222-3.813-4.687-7.257-2.828-3.242-.92-4.095-2.242-7.324-3.16 8.17-2.605 13.964-3.19 22.128-5.789 2.043 1.928 3.663 3.312 5.722 5.032 1.083.647 2.123.811 2.76 0 5.115-7.405 7.4-13.929 12.154-18.812 1.817-2.019 4.113-4.744 6.657-5.409 1.272-.332 2.832-.129 3.829.957.996 1.087 1.779 3.09 1.447 6.078-.476 4.289-1.513 5.643-2.717 8.214-1.202 2.571-2.672 4.154-4.184 6.123-3.023 3.938-7.011 6.229-9.372 7.769-4.722 3.078-6.718 1.73-10.374 1.536-4.725.53-5.982 2.831-2.115 6.01 3.615 1.882 6.864 2.113 9.505 1.625 2.268-.419 4.922-3.346 6.813-4.919 2.128-2.459 5.656.457 3.25 3.317-4.373 5.196-8.743 8.623-14.136 8.548-5.667.762-4.607 3.946-.846 5.499 6.769 2.794 12.88-2.438 15.984-5.876 2.395-2.622 4.096-2.724 3.673 1.334-2.377 7.348-5.627 10.186-10.93 10.552-4.302-.399-4.349 2.922-1.202 5.165 7.167 4.961 12.356-3.487 14.781-8.592 1.728-4.607 4.378-2.416 4.653 1.379.036 5.072-2.256 9.213-8.392 14.403 4.695 7.482 10.169 15.09 14.87 22.596l14.251-158.721-14.248-25.077c-1.483-1.37-6.502-7.283-7.812-8.103-.479-.511-.771-.872-.068-1.135.679-.254 2.27-.54 3.339-.735-3.021-3.026-5.61-3.997-11.331-5.654 1.395-.594 2.751-.248 6.856-.446-1.63-2.313-5.271-5.859-9.973-7.569 3.105-2.206 3.71-2.355 6.79-4.942-5.333-.378-9.887-1.393-14.47-2.782-2.897-1.355-6.921-2.504-8.883-2.539l-.004.005zm.513 6.211c2.818 0 4.564.966 4.564 2.137 0 1.192-1.746 2.16-4.564 2.16-2.806 0-4.586-1.057-4.586-2.248.001-1.172 1.78-2.049 4.586-2.049z"/><path d="M291.551 69.242c3.464-.058 9.211 1.104 9.083 3.763 9.647-1.654 10.652 2.332 10.085 5.877-.919-1.408-2.036-2.172-2.894-2.316-1.287-.213-2.633.202-4.008 1.047-1.375.844-2.889 2.207-3.561 3.049 3.405.814 6.034.289 8.704-.178 1.316-.231 3.158-.97 4.251-1.736 1.095-.766 1.44-1.488 3.162-3.251 2.03-2.079 4.191-1.493 3.518 1.736-1.557 3-4.158 4.339-7.435 4.876-1.578.26-3.928.822-6.59.824-2.663.003-5.653-.385-7.28-.045.978.615 2.083 1.672 4.274 2.093 2.229.428 5.616-1.325 7.681-1.803-.262 1.737-2.455 3.361-6.768 4.207-7.089 1.544-12.98 2.717-16.874 4.832-3.894 2.113-6.35 4.76-8.104 6.834-3.489 4.126-3.673 7.294-3.895 7.991-.718 6.594 1.582 10.303 5.855 11.442 2.136.571 5.933-.503 7.324-2.136 1.391-1.634 2.744-4.441 2.36-8.838-.376-1.725-2.349-6.217-.669-7.146 7.738-4.277 17.133-8.602 23.932-11.175 1.857-.703 3.388 1.822 3.984 2.805 11.549-1.406 21.961-9.221 26.647-17.542 3.193-5.668 8.455.012 7.57 5.364-1.428 5.976-5.981 10.296-11.443 13.357-5.606 3.087-12.613 6.125-19.702 5.966-3.818.723-3.78 5.664.802 6.59 8.963.056 16.112-.167 22.863-6.678 5.12-4.675 8.003.895 6.522 4.051-2.508 9.73-16.389 12.454-30.431 9.306-5.438-.901-2.181 4.926-.646 4.986 5.868 4.207 16.373 8.324 25.623-.045 4.234-3.24 7.096-.516 5.521 4.164-4.105 12.201-19.807 9.639-30.588 3.628-2.774-1.547-5.292 2.052-1.914 4.787 13.406 9.367 20.111 9.474 26.158 5.876 7.571-2.985 8.236 5.412 3.74 8.171-4.998 3.066-17.718.768-27.048-5.098-4-2.974-4.181 1.677-1.648 3.518 11.074 9.569 15.438 12.089 26.981 10.529 5.725-.446 5.639 6.611 1.136 9.372-6.147 3.77-18.153-2.487-27.471-10.218-3.922-2.095-4.566 1.341-2.627 5.41 5.694 7.182 11.037 11.418 16.185 13.38 5.147 1.96 10.097 1.648 13.602.445 4.274-1.47 4.81 2.972 2.448 7.012-1.423 2.434-7.323 3.215-13.69.957-6.368-2.258-13.205-7.553-17.899-13.758-4.084-3.575-3.576 1.228-1.714 4.608 9.399 14.859 17.996 20.371 29.318 19.435 5.021-.853 6.161 3.05 2.961 6.655-5.619 4.661-12.644 4.514-18.789-.088-5.462-5.267-15.913-16.608-21.393-22.685-3.862-3.079-5.096-.043-3.963 6.211 1.03 3.582 3.611 7.354 10.641 10.106 4.803 2.742 1.196 6.52-2.404 6.59-1.982.039-6.005-2.278-9.082-5.743-4.05-4.56-4.291-7.621-6.524-14.715-2.109-3.458-5.877-1.844-5.877 1.781 1.807 7.105 3.359 8.38 7.012 11.287 3.495 3.279-2.433 4.373-4.43 3.027-5.777-3.895-7.886-8.932-9.817-13.512-1.393-3.307-5.436-1.704-3.561 3.694 4.477 12.904 11.835 17.984 24.71 20.593 1.305.231 2.101 1.002 1.647 2.516-1.728 1.793-3.459 3.421-5.187 5.208 7.961 2.319 14.428 3.62 22.396 5.945 3.908-2.563 7.065-4.736 10.975-7.302 1.03-2.409 1.51-6.087 7.279-3.495 3.908-1.806 5.712-1.143 7.88.668-3.131.117-4.493.955-5.72 2.382-1.604 4.221-5.3 4.629-9.083 3.429-2.461 2.073-3.772 3.663-6.234 5.742 4.595-.157 7.796-.238 12.378-.378 4.374-4.697 7.865-4.44 10.998-.757 2.385.368 3.398.418 5.03 3.318-2.568-1.055-4.184-1.37-5.299-.224-4.65 2.697-7.688 2.096-9.994 0-4.487.276-8.531.507-13.024.802 1.651 1.404 3.916 2.148 5.566 3.563 6.739-1.929 10.257.667 11.443 6.166.903 2.22 1.325 4.505.934 6.879-.652-2.172-1.701-4.039-3.628-5.21-6.007 1.526-8.266-.926-8.592-4.519-2.897-2.362-7.262-2.883-10.152-5.276-3.379 1.082-5.012 1.752-8.415 2.828-1.21 3.677-3.948 5.132-8.392 4.185-5.291.166-4.358 2.337-4.787 4.074-1.406-2.494-1.367-4.92 1.892-7.124 1.186-3.222 3.814-4.687 7.258-2.828 3.242-.92 4.094-2.242 7.324-3.16-8.17-2.605-13.965-3.19-22.128-5.789-2.045 1.928-3.664 3.312-5.722 5.032-1.085.647-2.123.811-2.761 0-5.115-7.405-7.399-13.929-12.154-18.812-1.817-2.019-4.112-4.744-6.656-5.409-1.273-.332-2.833-.129-3.829.957-.997 1.087-1.779 3.09-1.447 6.078.476 4.289 1.512 5.643 2.715 8.214 1.204 2.571 2.674 4.154 4.186 6.123 3.023 3.938 7.011 6.229 9.372 7.769 4.721 3.078 6.718 1.73 10.374 1.536 4.724.53 5.982 2.831 2.114 6.01-3.614 1.882-6.865 2.113-9.505 1.625-2.268-.419-4.921-3.346-6.812-4.919-2.128-2.459-5.657.457-3.25 3.317 4.373 5.196 8.743 8.623 14.135 8.548 5.667.762 4.608 3.946.847 5.499-6.769 2.794-12.88-2.438-15.984-5.876-2.395-2.622-4.097-2.724-3.673 1.334 2.377 7.348 5.627 10.186 10.93 10.552 4.301-.399 4.349 2.922 1.202 5.165-7.167 4.961-12.356-3.487-14.781-8.592-1.728-4.607-4.378-2.416-4.654 1.379-.035 5.072 2.256 9.213 8.393 14.403-4.695 7.482-10.169 15.09-14.871 22.596l-14.251-158.721 14.247-25.077c1.485-1.37 6.504-7.283 7.814-8.103.479-.511.769-.872.068-1.135-.68-.254-2.27-.54-3.34-.735 3.022-3.026 5.611-3.997 11.331-5.654-1.394-.594-2.75-.248-6.856-.446 1.63-2.313 5.271-5.859 9.973-7.569-3.105-2.206-3.71-2.355-6.79-4.942 5.334-.378 9.888-1.393 14.471-2.782 2.897-1.355 6.92-2.504 8.882-2.539l.003.005zm-.512 6.211c-2.819 0-4.563.966-4.563 2.137 0 1.192 1.744 2.16 4.563 2.16 2.807 0 4.586-1.057 4.586-2.248 0-1.172-1.779-2.049-4.586-2.049z"/></g></svg>