<!-- <svg xmlns="http://www.w3.org/2000/svg" width="1200" height="600"><path fill="#F2A800" d="M0 0h1200v600H0z"/><path fill="#0033A0" d="M0 0h1200v400H0z"/><path fill="#D90012" d="M0 0h1200v200H0z"/></svg> -->
<svg xmlns="http://www.w3.org/2000/svg" shape-rendering="geometricPrecision" text-rendering="geometricPrecision" image-rendering="optimizeQuality" fill-rule="evenodd" clip-rule="evenodd" viewBox="0 0 512 356.18"><g fill-rule="nonzero"><path fill="#F2A800" d="M28.137 0H483.86C499.337 0 512 12.663 512 28.14v299.9c0 15.477-12.663 28.14-28.14 28.14H28.137C12.663 356.18 0 343.517 0 328.04V28.14C0 12.663 12.663 0 28.137 0z"/><path fill="#0033A0" d="M512 237.454H0V28.14C0 12.663 12.663 0 28.137 0H483.86C499.337 0 512 12.663 512 28.14v209.314z"/><path fill="#D90012" d="M512 118.726H0V28.14C0 12.663 12.663 0 28.137 0H483.86C499.337 0 512 12.663 512 28.14v90.586z"/></g></svg>