<svg xmlns="http://www.w3.org/2000/svg" shape-rendering="geometricPrecision" text-rendering="geometricPrecision" image-rendering="optimizeQuality" fill-rule="evenodd" clip-rule="evenodd" viewBox="0 0 512 356.18"><path fill-rule="nonzero" d="M28.137 0H483.86C499.337 0 512 12.663 512 28.14v299.9c0 15.477-12.663 28.14-28.14 28.14H28.137C12.663 356.18 0 343.517 0 328.04V28.14C0 12.663 12.663 0 28.137 0z"/><path fill="#CC092F" fill-rule="nonzero" d="M512 178.09H0V28.14C0 12.663 12.663 0 28.137 0H483.86C499.337 0 512 12.663 512 28.14v149.95z"/><path fill="#FFCB00" d="M220.89 122.167h21.754l6.597-20.503 6.773 20.503h21.751l-17.473 13.016 6.774 20.858-17.825-12.659-17.65 12.659 6.774-20.858z"/><path fill="#FFCB00" d="M300.405 234.312l-17.112-13.375c17.29-14.084 28.526-35.657 28.526-59.724 0-36.726-26.206-67.571-60.796-74.881l2.674-12.481c4.814 1.071 10.462 3.096 15.097 4.699l4.458-7.484c4.809 2.315 10.162 4.632 14.617 7.484l-3.386 8.025c4.458 2.854 9.839 7.273 12.832 10.752l6.694-5.229c3.567 3.919 7.848 8.018 10.878 12.301l-6.062 6.24c3.915 5.747 5.428 8.391 8.313 15.011l8.505-1.995c1.607 4.991 4.046 11.103 4.94 16.271l-8.054 3.165c.963 4.017 2.207 11.033 2.127 16.934-.006.356-.033.758-.033 1.115l8.411 1.2c-.357 5.172-.533 11.056-1.605 16.226l-8.736.001c-1.247 5.346-2.856 11.884-4.814 16.874l7.306 4.282c-2.316 4.634-4.631 10.161-7.663 14.618l-8.022-3.385c-3.034 4.456-6.418 8.733-10.162 12.657l5.168 6.774c-1.424 1.247-2.672 2.497-4.1 3.925h-.001zm-37.614-1.606l12.925 7.788c-1.206 1.103-4.816 2.972-5.773 3.351l2.113 8.112c-4.99 1.607-10.341 3.924-15.865 4.994l-3.207-8.021c-5.171 1.068-10.34 1.781-15.689 1.781l-1.073 8.378c-4.99-.355-11.051 0-16.579-1.248v-8.376a95.212 95.212 0 01-14.44-3.748l-4.102 7.316c-4.279-1.787-9.982-3.927-14.621-6.777l3.034-8.023c-3.747-1.963-7.133-4.458-10.342-6.958l8.023-10.161c13.194 10.52 29.773 16.757 47.959 16.757 9.629 0 19.075-1.601 27.637-5.165z"/><path fill="#FFCB00" d="M316.666 253.371l-85.325-64.933-.777 1.107 85.104 65.047-5.05 6.321-82.964-53.214c-22.464-14.086-21.572-25.138-16.936-37.083l3.923-9.627c2.141 12.479 14.973 21.932 28.346 32.447l75.341 57.879-1.662 2.056zm21.42 19.352c-.73 0-1.324-.593-1.324-1.324v-.005-.001a1.328 1.328 0 012.654.001v.002c0 .733-.594 1.327-1.328 1.327h-.002zm-5.098-3.744a1.33 1.33 0 01-1.329-1.326v-.001a1.328 1.328 0 111.329 1.327zm-5.219-4.158c-.73 0-1.327-.594-1.327-1.326a1.326 1.326 0 012.654 0c0 .732-.594 1.326-1.327 1.326zm17.545 7.36l-25.565-19.807-7.429 9.574 22.208 15.574c1.784 1.247 1.959 6.957 8.553 7.849 2.679.354 4.457-1.608 4.457-1.608 2.874-3.498 2.09-8.312-2.224-11.582z"/></svg> 