<svg xmlns="http://www.w3.org/2000/svg" shape-rendering="geometricPrecision" text-rendering="geometricPrecision" image-rendering="optimizeQuality" fill-rule="evenodd" clip-rule="evenodd" viewBox="0 0 512 356.18"><g fill-rule="nonzero"><path fill="#509E2F" d="M28.137 0H483.86C499.337 0 512 12.663 512 28.14v299.9c0 15.477-12.663 28.14-28.14 28.14H28.137C12.663 356.18 0 343.517 0 328.04V28.14C0 12.663 12.663 0 28.137 0z"/><path fill="#EF3340" d="M0 237.454h512V28.14C512 12.663 499.337 0 483.86 0H28.137C12.663 0 0 12.663 0 28.14v209.314z"/><path fill="#00B5E2" d="M0 118.726h512V28.14C512 12.663 499.337 0 483.86 0H28.137C12.663 0 0 12.663 0 28.14v90.586z"/><path fill="#fff" d="M280.867 145.944c-9.751-12.925-25.238-21.282-42.677-21.282-29.507 0-53.427 23.92-53.427 53.428 0 29.507 23.92 53.428 53.427 53.428 17.44 0 32.926-8.357 42.677-21.282-7.997 7.665-18.85 12.377-30.803 12.377-24.59 0-44.524-19.934-44.524-44.523 0-24.589 19.934-44.523 44.524-44.523 11.953 0 22.804 4.712 30.803 12.377z"/><path fill="#fff" d="M297.555 148.408l5.68 15.971 15.309-7.277-7.278 15.308 15.971 5.68-15.971 5.68 7.278 15.308-15.309-7.277-5.68 15.971-5.679-15.971-15.309 7.277 7.276-15.308-15.971-5.68 15.971-5.68-7.276-15.308 15.309 7.277z"/></g></svg>