<svg viewBox="0 0 514 359" xmlns="http://www.w3.org/2000/svg" fill-rule="evenodd" clip-rule="evenodd" stroke-miterlimit="22.926"><path d="M28.91 1h456.18C500.44 1 513 13.56 513 28.91v300.38c0 15.35-12.56 27.91-27.91 27.91H28.91C13.56 357.2 1 344.64 1 329.29V28.91C1 13.56 13.56 1 28.91 1z" fill="#046a38" fill-rule="nonzero"/><path d="M1 129.25h512v49.85H1v-49.85zM207.15 1H257v356.2h-49.85V1z" fill="#ffcd00" fill-rule="nonzero"/><path d="M1 179.1h512v49.85H1V179.1zM257 1h49.85v356.2H257V1z" fill="#fff" fill-rule="nonzero"/><path d="M1 162.48h512v33.24H1v-33.24zM240.38 1h33.24v356.2h-33.24V1z" fill-rule="nonzero"/><path d="M513 28.91C513 13.506 500.494 1 485.09 1H28.91C13.506 1 1 13.506 1 28.91v300.38c0 15.404 12.506 27.91 27.91 27.91h456.18c15.404 0 27.91-12.506 27.91-27.91V28.91z" fill="none" stroke="#ccc" stroke-width="2"/><path d="M361.83 179.1c0-57.92-46.91-104.83-104.83-104.83S152.17 121.18 152.17 179.1 199.08 283.93 257 283.93s104.83-46.91 104.83-104.83z" fill="#d50032" fill-rule="nonzero"/><path d="M257.51 85.72l3.16 9.72H270.885a.537.537 0 01.285.99l-8.24 5.98 3.16 9.71c.09.28-.06.59-.35.68-.17.06-.36.02-.49-.09l-8.25-5.99-8.26 6c-.24.18-.58.12-.75-.12a.523.523 0 01-.08-.48l3.16-9.71-8.26-6a.53.53 0 01-.12-.75c.1-.15.27-.22.43-.22h10.21l3.16-9.72a.531.531 0 01.68-.34c.17.05.29.18.34.34zm2.26 10.42L257 87.63l-2.76 8.48c-.06.23-.27.4-.52.4h-8.94l7.22 5.25c.2.13.29.38.21.61l-2.76 8.5 7.23-5.25c.18-.13.44-.14.64 0l7.23 5.25-2.76-8.5c-.07-.21 0-.46.19-.6l7.24-5.26h-8.94c-.23 0-.44-.14-.51-.37z" fill-rule="nonzero"/><path d="M257 85.89l3.28 10.08h10.6l-8.58 6.24 3.28 10.08-8.58-6.23-8.58 6.23 3.28-10.08-8.58-6.24h10.6L257 85.89z" fill="#046a38" fill-rule="nonzero"/><path d="M312.3 103.86l-3.16 9.71 8.26 6c.24.17.3.51.12.75a.56.56 0 01-.45.23l-10.19-.01-3.16 9.72a.532.532 0 01-.67.34.52.52 0 01-.35-.34l-3.16-9.72h-10.21c-.3 0-.54-.24-.54-.54 0-.17.09-.33.23-.43l8.26-6-3.16-9.71c-.09-.28.06-.59.35-.68.17-.06.36-.02.49.09l8.25 5.99 8.26-6.01a.543.543 0 01.83.61zm-4.3 9.75l2.76-8.51-7.23 5.25a.54.54 0 01-.64.01l-7.23-5.26 2.76 8.51c.07.22 0 .46-.19.6l-7.24 5.26h8.91c.24-.02.47.13.55.37l2.76 8.5 2.76-8.5c.07-.22.27-.37.51-.37h8.95l-7.22-5.24a.545.545 0 01-.21-.62z" fill-rule="nonzero"/><path d="M311.79 103.69l-3.28 10.09 8.58 6.23h-10.61l-3.27 10.08-3.28-10.08-10.6-.01 8.58-6.22-3.28-10.09 8.58 6.23 8.58-6.23z" fill="#046a38" fill-rule="nonzero"/><path d="M345.97 150.73l-8.27 6.01 3.16 9.7c.09.29-.07.59-.35.68a.552.552 0 01-.5-.08l-8.24-6-8.26 6.01a.543.543 0 01-.83-.61l3.16-9.71-8.26-6a.53.53 0 01-.12-.75c.11-.15.28-.23.45-.22h10.19l3.16-9.71c.09-.29.39-.44.67-.35.18.06.3.19.35.35l3.16 9.71h10.21c.3 0 .54.24.54.54 0 .17-.09.33-.22.43zm-9.22 5.36l7.24-5.26h-8.91a.539.539 0 01-.55-.37l-2.76-8.5-2.76 8.5a.56.56 0 01-.52.38l-8.94-.01 7.22 5.25c.19.13.29.38.21.61l-2.76 8.51 7.22-5.25a.54.54 0 01.64-.01l7.24 5.26-2.76-8.5c-.07-.22 0-.47.19-.61z" fill-rule="nonzero"/><path d="M345.65 150.3l-8.58 6.23 3.28 10.08-8.58-6.23-8.58 6.23 3.28-10.08-8.58-6.24 10.6.01 3.28-10.09 3.27 10.08 10.61.01z" fill="#046a38" fill-rule="nonzero"/><path d="M345.63 208.44h-10.19l-3.16 9.71c-.09.28-.4.44-.68.35a.54.54 0 01-.34-.35l-3.16-9.71h-10.21c-.29 0-.54-.24-.54-.54 0-.17.09-.33.23-.43l8.26-6-3.16-9.72c-.09-.28.06-.58.35-.68.17-.05.36-.01.5.09l8.24 5.99 8.26-6a.54.54 0 01.83.6l-3.16 9.71 8.27 6.01c.24.17.29.51.12.75a.54.54 0 01-.46.22zm-10.59-1.07h8.95l-7.22-5.25a.534.534 0 01-.21-.62l2.76-8.5-7.23 5.25a.54.54 0 01-.64.01l-7.23-5.26 2.76 8.5c.07.22 0 .47-.19.61l-7.24 5.26 8.91-.01c.24-.01.47.14.55.37l2.76 8.51 2.76-8.5c.07-.22.27-.37.51-.37z" fill-rule="nonzero"/><path d="M345.65 207.9h-10.61l-3.27 10.08-3.28-10.08h-10.6l8.58-6.23-3.28-10.08 8.58 6.23 8.57-6.23-3.27 10.08 8.58 6.23z" fill="#046a38" fill-rule="nonzero"/><path d="M311.45 254.93l-8.24-5.99-8.26 6c-.24.18-.58.12-.75-.12a.523.523 0 01-.08-.48l3.16-9.71-8.26-6a.53.53 0 01-.12-.75c.11-.15.28-.23.45-.22l10.19-.01 3.16-9.71c.09-.28.39-.43.68-.34.17.05.29.19.34.34l3.16 9.71h10.21c.29 0 .53.24.53.54 0 .18-.08.34-.22.44l-8.25 6 3.15 9.71c.09.28-.06.59-.35.68a.53.53 0 01-.5-.09zm-7.93-7.09l7.24 5.26-2.76-8.51c-.07-.22 0-.46.2-.6l7.23-5.26h-8.91a.539.539 0 01-.55-.37l-2.76-8.5-2.76 8.5c-.07.21-.28.37-.52.37h-8.94l7.22 5.24c.19.13.29.38.21.62l-2.76 8.5 7.22-5.24a.54.54 0 01.64-.01z" fill-rule="nonzero"/><path d="M311.79 254.51l-8.58-6.23-8.58 6.23 3.28-10.09-8.58-6.23h10.6l3.28-10.08 3.27 10.08h10.61l-8.58 6.23 3.28 10.09z" fill="#046a38" fill-rule="nonzero"/><path d="M256.49 272.48l-3.16-9.72h-10.21a.538.538 0 01-.29-.99l8.24-5.98-3.16-9.71c-.09-.28.06-.59.35-.68.17-.06.36-.02.49.09l8.25 5.99 8.26-6c.24-.18.58-.12.75.12.11.14.13.32.08.48l-3.16 9.71 8.26 6c.24.17.3.51.12.75-.1.15-.27.22-.43.22h-10.21l-3.16 9.72a.531.531 0 01-.68.34.504.504 0 01-.34-.34zm-2.26-10.42l2.77 8.51 2.76-8.48c.06-.23.27-.41.52-.41h8.94l-7.22-5.24a.522.522 0 01-.21-.61l2.76-8.51-7.23 5.25a.54.54 0 01-.64.01l-7.23-5.26 2.76 8.51c.07.21 0 .46-.19.6l-7.24 5.25h8.94c.23.01.44.15.51.38z" fill-rule="nonzero"/><path d="M257 272.31l-3.28-10.09h-10.6l8.58-6.23-3.28-10.08 8.58 6.23 8.58-6.23-3.28 10.08 8.58 6.23h-10.6L257 272.31z" fill="#046a38" fill-rule="nonzero"/><path d="M201.7 254.34l3.16-9.71-8.26-6a.535.535 0 01-.12-.75.56.56 0 01.45-.23h10.19l3.16-9.71a.532.532 0 01.67-.34c.18.05.3.19.35.34l3.16 9.71 10.21.01c.3 0 .54.24.54.53 0 .18-.09.34-.23.44l-8.26 6 3.16 9.71c.09.28-.06.59-.35.68-.17.06-.36.02-.49-.09l-8.25-5.99-8.26 6c-.24.18-.58.13-.75-.12a.523.523 0 01-.08-.48zm4.3-9.75l-2.76 8.51 7.23-5.25a.54.54 0 01.64-.01l7.23 5.25-2.76-8.5c-.07-.22 0-.46.19-.6l7.24-5.26h-8.91a.539.539 0 01-.55-.37l-2.76-8.5-2.76 8.5a.542.542 0 01-.51.37h-8.95l7.22 5.24c.19.13.29.38.21.62z" fill-rule="nonzero"/><path d="M202.21 254.51l3.28-10.09-8.58-6.23h10.61l3.27-10.08 3.28 10.08h10.6l-8.58 6.23 3.28 10.09-8.58-6.23-8.58 6.23z" fill="#046a38" fill-rule="nonzero"/><path d="M168.03 207.47l8.27-6.01-3.16-9.71c-.09-.28.07-.58.35-.68.18-.05.36-.01.5.09l8.24 5.99 8.26-6a.54.54 0 01.83.6l-3.16 9.72 8.26 6c.24.17.3.51.12.75-.11.15-.28.23-.45.22H185.9l-3.16 9.71a.536.536 0 01-1.02 0l-3.16-9.71h-10.21a.54.54 0 01-.32-.97zm9.22-5.37l-7.24 5.27h8.91c.24-.02.47.13.55.37l2.76 8.5 2.76-8.51c.08-.21.28-.37.52-.37l8.94.01-7.22-5.25a.545.545 0 01-.21-.62l2.76-8.5-7.22 5.25a.54.54 0 01-.64.01l-7.24-5.26 2.76 8.5c.07.22 0 .46-.19.6z" fill-rule="nonzero"/><path d="M168.35 207.9l8.58-6.23-3.28-10.08 8.58 6.23 8.58-6.23-3.28 10.08 8.58 6.23h-10.6l-3.28 10.08-3.27-10.08h-10.61z" fill="#046a38" fill-rule="nonzero"/><path d="M168.37 149.76h10.19l3.16-9.71c.09-.29.4-.44.68-.35.17.06.29.19.34.35l3.16 9.71h10.21c.29 0 .54.24.54.53 0 .18-.09.34-.23.44l-8.26 6 3.16 9.71c.09.29-.06.59-.35.68-.17.06-.36.02-.5-.08l-8.24-6-8.26 6.01a.543.543 0 01-.83-.61l3.16-9.7-8.27-6.01a.543.543 0 01-.12-.75.54.54 0 01.46-.22zm10.59 1.07h-8.95l7.22 5.25c.2.13.29.38.21.62l-2.76 8.5 7.23-5.25a.54.54 0 01.64-.01l7.23 5.26-2.76-8.51c-.07-.21 0-.46.19-.6l7.24-5.26-8.91.01a.56.56 0 01-.55-.38l-2.76-8.5-2.76 8.5c-.07.22-.27.37-.51.37z" fill-rule="nonzero"/><path d="M168.35 150.3l10.61-.01 3.27-10.08 3.28 10.09 10.6-.01-8.58 6.24 3.28 10.08-8.58-6.23-8.57 6.23 3.27-10.08-8.58-6.23z" fill="#046a38" fill-rule="nonzero"/><path d="M202.55 103.27l8.24 5.99 8.26-6c.24-.18.58-.12.75.12.11.14.13.32.08.48l-3.16 9.71 8.26 6c.24.17.3.51.12.75-.11.15-.28.23-.45.22h-10.19l-3.16 9.72a.537.537 0 01-1.02 0l-3.16-9.72-10.21.01c-.29 0-.53-.25-.53-.54 0-.18.08-.34.22-.44l8.25-6-3.15-9.71c-.09-.29.06-.59.35-.68a.53.53 0 01.5.09zm7.93 7.09l-7.24-5.26 2.76 8.51c.07.22 0 .46-.2.6l-7.23 5.26h8.91c.24-.02.47.13.55.37l2.76 8.5 2.76-8.5a.541.541 0 01.52-.37h8.94l-7.22-5.24a.551.551 0 01-.21-.62l2.76-8.51-7.22 5.25a.54.54 0 01-.64.01z" fill-rule="nonzero"/><path d="M202.21 103.69l8.58 6.23 8.58-6.23-3.28 10.09 8.58 6.23h-10.6l-3.28 10.08-3.27-10.08h-10.61l8.58-6.23-3.28-10.09z" fill="#046a38" fill-rule="nonzero"/><path d="M273.51 237.4c1.62-.11 2.89-3.6 3.62-9.15.74-5.63.91-13.37.31-21.86v-.01c-.59-8.49-1.83-16.12-3.35-21.59-1.5-5.39-3.23-8.67-4.86-8.56-1.62.11-2.88 3.6-3.62 9.15-.74 5.64-.9 13.37-.31 21.86v.01c.6 8.49 1.84 16.12 3.35 21.59 1.5 5.4 3.24 8.68 4.86 8.56zm4.02-9.1c-.75 5.76-2.15 9.38-3.99 9.51-1.84.13-3.72-3.27-5.28-8.86-1.52-5.5-2.77-13.16-3.36-21.66v-.03c-.6-8.52-.44-16.27.31-21.93.76-5.76 2.15-9.38 4-9.51 1.84-.13 3.72 3.27 5.27 8.86 1.53 5.5 2.77 13.16 3.37 21.67v.02c.6 8.52.43 16.27-.32 21.93z" fill-rule="nonzero"/><path d="M273.53 237.61c3.46-.25 5.31-14.23 4.12-31.23-1.19-17.01-4.97-30.6-8.43-30.35-3.47.24-5.31 14.22-4.12 31.22 1.19 17.01 4.96 30.6 8.43 30.36z" fill="#046a38" fill-rule="nonzero"/><path d="M279.64 237.32c1.72-.12 3.07-3.61 3.86-9.17.81-5.64 1.01-13.37.42-21.86v-.01c-.6-8.49-1.87-16.12-3.46-21.58-1.56-5.4-3.38-8.67-5.1-8.55-1.72.12-3.07 3.62-3.87 9.18-.8 5.64-1.01 13.37-.41 21.86v.01c.59 8.49 1.87 16.12 3.45 21.58 1.56 5.39 3.39 8.66 5.11 8.54zm4.26-9.11c-.82 5.76-2.3 9.39-4.24 9.52-1.93.14-3.9-3.25-5.52-8.83-1.59-5.5-2.87-13.16-3.47-21.67v-.01c-.59-8.52-.39-16.28.42-21.95.82-5.76 2.3-9.39 4.24-9.52 1.94-.14 3.91 3.25 5.52 8.83 1.59 5.5 2.88 13.16 3.47 21.67v.02c.6 8.51.39 16.28-.42 21.94z" fill-rule="nonzero"/><path d="M279.65 237.53c3.66-.26 5.66-14.25 4.47-31.25-1.19-17.01-5.12-30.59-8.78-30.33-3.65.25-5.65 14.25-4.47 31.25 1.19 17.01 5.12 30.58 8.78 30.33z" fill="#046a38" fill-rule="nonzero"/><path d="M277 242.24c1.34-.1 2.34-3.93 2.85-10.05.53-6.22.53-14.76-.13-24.15v-.01c-.66-9.39-1.85-17.84-3.23-23.92-1.36-5.99-2.88-9.65-4.22-9.55-1.34.09-2.34 3.92-2.85 10.04-.53 6.22-.52 14.75.13 24.14v.02c.66 9.39 1.85 17.85 3.23 23.93 1.36 5.98 2.88 9.64 4.22 9.55zm3.26-10.01c-.53 6.33-1.66 10.3-3.23 10.41-1.57.11-3.24-3.67-4.65-9.87-1.39-6.1-2.58-14.57-3.23-23.98v-.02c-.66-9.41-.66-17.97-.14-24.2.54-6.34 1.66-10.31 3.23-10.42 1.58-.11 3.24 3.67 4.65 9.87 1.39 6.1 2.58 14.58 3.23 23.98l.01.03c.65 9.4.65 17.96.13 24.2z" fill-rule="nonzero"/><path d="M277.02 242.44c2.92-.2 4.22-15.61 2.9-34.41-1.31-18.8-4.75-33.88-7.66-33.68-2.92.21-4.23 15.62-2.91 34.42 1.31 18.8 4.75 33.87 7.67 33.67z" fill="#046a38" fill-rule="nonzero"/><path d="M282.59 229.85c-5.04.53-19.16.91-31.44.95-10.67.04-19.98-.19-20.83-.81-.66-.49-1.43-1.54-2.15-2.68-1.23-1.97-2.3-4.28-2.3-4.48 0-.11.09-.2.21-.2 3.11-.14 3.51-1.19 3.92-2.31.3-.8.61-1.64 1.74-2.26l.01-.01c1.32-.77 2.89-.93 4.32-.68 1.58.28 2.99 1.07 3.63 2.1l.01.01c.53.89.64 1.75.73 2.44.09.75.15 1.26.78 1.29.29 0 1.49-.04 3.32-.12 8.23-.32 29.28-1.14 38.04-.52.92.07 1.73.51 2.32 1.15.59.67.96 1.56.96 2.49 0 .93-.36 1.8-.95 2.45-.58.65-1.4 1.1-2.32 1.19zm-31.44.55c12.27-.04 26.37-.42 31.39-.96.82-.08 1.55-.47 2.07-1.05.52-.58.84-1.35.84-2.18 0-.83-.33-1.62-.86-2.21-.51-.58-1.23-.97-2.04-1.02-8.74-.62-29.76.2-37.99.52-1.87.07-3.08.12-3.34.12-.99-.04-1.07-.7-1.19-1.65-.08-.65-.18-1.47-.67-2.28v-.01c-.58-.93-1.88-1.65-3.36-1.91-1.34-.23-2.82-.08-4.05.63l-.01.01c-1 .56-1.29 1.32-1.55 2.05-.46 1.22-.89 2.37-4.05 2.56.24.6 1.15 2.43 2.18 4.07.69 1.11 1.43 2.12 2.04 2.57.78.56 9.99.77 20.59.74z" fill-rule="nonzero"/><path d="M282.56 229.65c-9.37.99-50.37 1.45-52.11.17-1.75-1.28-4.37-6.7-4.37-6.99 5.36-.23 3.03-3.08 5.76-4.6 2.68-1.57 6.52-.52 7.69 1.34 1.16 1.92.23 3.79 1.69 3.85 1.51 0 30.63-1.4 41.34-.64 1.75.11 3.09 1.68 3.09 3.43 0 1.75-1.34 3.26-3.09 3.44z" fill="#9c4a00" fill-rule="nonzero"/><path d="M255.04 226.75c-.02 1.85 1.47 2.48 2.91 3.1 1.54.65 3.03 1.29 3.09 3.16v.04c-.04.9-.57 1.46-1.38 1.71-.54.17-1.22.19-1.96.06a8.993 8.993 0 01-2.26-.73c-2.65-1.25-5.33-3.88-5.39-7.41v-.03c.21-3.46 2.86-6.03 5.46-7.22.78-.36 1.57-.61 2.28-.71.74-.1 1.42-.06 1.96.14.77.29 1.26.88 1.29 1.8.07 1.75-1.37 2.35-2.91 2.99-1.46.6-3.03 1.25-3.09 3.1zm2.57 3.89c-1.7-.72-3.46-1.48-3.43-3.9v-.02c.07-2.4 1.92-3.17 3.62-3.87 1.26-.52 2.42-1 2.38-2.16-.01-.52-.29-.86-.73-1.02-.4-.15-.93-.18-1.54-.09-.63.09-1.33.3-2.04.63-2.36 1.09-4.76 3.4-4.96 6.48.07 3.13 2.49 5.49 4.89 6.62.71.33 1.41.55 2.05.66.6.1 1.15.1 1.56-.03.45-.14.74-.44.77-.92-.06-1.31-1.29-1.84-2.57-2.38z" fill-rule="nonzero"/><path d="M254.61 226.74c-.06 4.07 5.88 2.91 6 6.29-.17 3.55-10.02.23-10.13-6.35.41-6.52 10.01-9.73 10.13-6 .12 3.09-5.88 2.04-6 6.06z" fill="#ffcd00" fill-rule="nonzero"/><path d="M258.54 226.75c-.03 1.85 1.47 2.48 2.9 3.1 1.54.65 3.03 1.29 3.09 3.16v.04c-.04.9-.56 1.46-1.37 1.71-.55.17-1.23.19-1.96.06-.71-.12-1.49-.37-2.27-.73-2.65-1.25-5.33-3.88-5.39-7.41v-.03c.22-3.46 2.87-6.03 5.47-7.22.78-.36 1.56-.61 2.28-.71.74-.1 1.42-.06 1.96.14.77.29 1.26.88 1.28 1.8.07 1.75-1.36 2.35-2.91 2.99-1.45.6-3.03 1.25-3.08 3.1zm2.56 3.89c-1.69-.72-3.45-1.48-3.42-3.9v-.02c.07-2.4 1.91-3.17 3.61-3.87 1.26-.52 2.43-1 2.38-2.16-.01-.52-.29-.86-.73-1.02-.39-.15-.93-.18-1.53-.09-.64.09-1.34.3-2.04.63-2.36 1.09-4.77 3.4-4.97 6.48.07 3.13 2.49 5.49 4.9 6.62.7.33 1.4.55 2.04.66.61.1 1.15.1 1.56-.03.45-.14.74-.44.77-.92-.05-1.31-1.29-1.84-2.57-2.38z" fill-rule="nonzero"/><path d="M258.11 226.74c-.06 4.07 5.88 2.91 5.99 6.29-.17 3.55-10.01.23-10.13-6.35.41-6.52 10.02-9.73 10.13-6 .12 3.09-5.88 2.04-5.99 6.06z" fill="#ffcd00" fill-rule="nonzero"/><path d="M262.32 226.75c-.02 1.85 1.47 2.48 2.91 3.1 1.54.65 3.03 1.29 3.09 3.16v.04c-.04.9-.57 1.46-1.38 1.71-.54.17-1.22.19-1.96.06a8.993 8.993 0 01-2.26-.73c-2.66-1.25-5.33-3.88-5.39-7.41v-.03c.21-3.46 2.86-6.03 5.46-7.22.78-.36 1.57-.61 2.28-.71.74-.1 1.42-.06 1.96.14.77.29 1.26.88 1.29 1.8.07 1.75-1.37 2.35-2.91 2.99-1.46.6-3.03 1.25-3.09 3.1zm2.57 3.89c-1.7-.72-3.46-1.48-3.43-3.9v-.02c.07-2.4 1.92-3.17 3.62-3.87 1.26-.52 2.42-1 2.38-2.16-.02-.52-.29-.86-.73-1.02-.4-.15-.93-.18-1.54-.09-.63.09-1.33.3-2.04.63-2.36 1.09-4.76 3.4-4.96 6.48.06 3.13 2.49 5.49 4.89 6.62.71.33 1.41.55 2.04.66.61.1 1.16.1 1.57-.03.45-.14.74-.44.77-.92-.06-1.31-1.29-1.84-2.57-2.38z" fill-rule="nonzero"/><path d="M261.89 226.74c-.06 4.07 5.88 2.91 6 6.29-.18 3.55-10.02.23-10.13-6.35.4-6.52 10.01-9.73 10.13-6 .12 3.09-5.88 2.04-6 6.06z" fill="#ffcd00" fill-rule="nonzero"/><path d="M265.87 226.75c-.02 1.85 1.47 2.48 2.91 3.1 1.54.65 3.03 1.29 3.09 3.16v.04c-.04.9-.57 1.46-1.38 1.71-.54.17-1.22.19-1.96.06a8.993 8.993 0 01-2.26-.73c-2.65-1.25-5.33-3.88-5.39-7.41v-.03c.21-3.46 2.87-6.03 5.46-7.22.79-.36 1.57-.61 2.29-.71.74-.1 1.41-.06 1.95.14.78.29 1.26.88 1.29 1.8.07 1.75-1.36 2.35-2.91 2.99-1.46.6-3.03 1.25-3.09 3.1zm2.57 3.89c-1.69-.72-3.45-1.48-3.43-3.9v-.02c.07-2.4 1.92-3.17 3.62-3.87 1.26-.52 2.43-1 2.38-2.16-.01-.52-.29-.86-.73-1.02-.4-.15-.93-.18-1.53-.09-.64.09-1.34.3-2.05.63-2.36 1.09-4.76 3.4-4.96 6.48.07 3.13 2.49 5.49 4.89 6.62.71.33 1.41.55 2.05.66.6.1 1.15.1 1.56-.03.45-.14.74-.44.77-.92-.06-1.31-1.29-1.84-2.57-2.38z" fill-rule="nonzero"/><path d="M265.44 226.74c-.05 4.07 5.89 2.91 6 6.29-.17 3.55-10.01.23-10.13-6.35.41-6.52 10.02-9.73 10.13-6 .12 3.09-5.88 2.04-6 6.06z" fill="#ffcd00" fill-rule="nonzero"/><path d="M263.67 219.72c.56-1.06.82-2.6.81-4.22-.02-1.64-.34-3.37-.93-4.78-.36-.84-.77-1.46-1.2-1.87-.31-.28-.61-.44-.9-.48-.27-.03-.54.04-.8.23-.25.19-.49.49-.71.91-.56 1.05-.82 2.59-.8 4.22.01 1.64.33 3.36.92 4.78.36.83.77 1.46 1.2 1.86.31.28.61.45.9.48.27.04.55-.04.8-.23s.49-.49.71-.9zm1.67-4.23c.02 1.76-.28 3.45-.91 4.63-.27.53-.6.92-.96 1.19-.44.33-.92.46-1.41.4-.47-.06-.95-.3-1.38-.71-.52-.48-1-1.2-1.41-2.16-.64-1.52-.98-3.36-1-5.1-.02-1.76.28-3.45.91-4.63.27-.53.6-.93.96-1.19.44-.33.92-.47 1.41-.4.48.06.95.3 1.38.7.52.48 1 1.21 1.41 2.17.64 1.51.98 3.35 1 5.1z" fill-rule="nonzero"/><path d="M264.05 219.92c1.18-2.24 1.13-6.44-.11-9.37-1.24-2.93-3.2-3.48-4.38-1.24-1.18 2.24-1.13 6.43.11 9.36 1.24 2.93 3.2 3.49 4.38 1.25z" fill="#046a38" fill-rule="nonzero"/><path d="M258.53 219.35c.55-1.06.82-2.59.8-4.22-.02-1.64-.33-3.37-.93-4.78-.35-.83-.76-1.46-1.19-1.86-.31-.29-.62-.45-.91-.49-.27-.03-.54.04-.79.23s-.5.49-.72.91c-.55 1.06-.82 2.59-.8 4.22.02 1.64.33 3.37.93 4.78.36.84.77 1.46 1.2 1.86.3.29.61.45.9.49.27.03.54-.05.79-.23.26-.19.5-.49.72-.91zm1.66-4.23c.02 1.76-.28 3.45-.9 4.63-.28.53-.6.93-.96 1.19-.44.33-.92.46-1.42.4-.47-.06-.94-.3-1.38-.71-.51-.48-1-1.2-1.4-2.16-.64-1.51-.98-3.36-1-5.1-.02-1.76.28-3.45.9-4.63.28-.53.61-.93.96-1.19.45-.33.93-.46 1.42-.4.47.06.94.3 1.38.71.52.48 1 1.2 1.41 2.16.64 1.51.97 3.35.99 5.1z" fill-rule="nonzero"/><path d="M258.91 219.55c1.18-2.24 1.13-6.43-.11-9.37-1.24-2.92-3.21-3.48-4.39-1.24-1.18 2.24-1.13 6.44.11 9.36 1.25 2.94 3.21 3.49 4.39 1.25z" fill="#046a38" fill-rule="nonzero"/><path d="M254.84 212.69c.56-1.05.83-2.59.81-4.22-.02-1.64-.33-3.36-.93-4.78-.36-.83-.77-1.46-1.2-1.86-.31-.28-.61-.45-.9-.48-.27-.04-.54.04-.8.23-.25.19-.49.49-.71.9-.56 1.06-.82 2.6-.8 4.22.02 1.64.33 3.37.93 4.78.35.84.76 1.47 1.19 1.87.31.28.62.44.91.48.27.03.54-.04.79-.23s.49-.49.71-.91zm1.67-4.23c.02 1.76-.28 3.45-.9 4.63-.28.53-.61.93-.96 1.2-.45.33-.93.46-1.42.39-.47-.06-.94-.3-1.38-.7-.52-.48-1-1.21-1.41-2.17-.64-1.51-.97-3.35-1-5.1-.01-1.76.28-3.44.91-4.63.28-.53.6-.92.96-1.19.44-.33.92-.46 1.41-.4.48.06.95.3 1.39.71.51.48.99 1.2 1.4 2.16.64 1.52.98 3.36 1 5.1z" fill-rule="nonzero"/><path d="M255.22 212.89c1.18-2.24 1.14-6.43-.11-9.36-1.24-2.93-3.2-3.49-4.38-1.25-1.18 2.24-1.13 6.44.11 9.37 1.24 2.93 3.2 3.48 4.38 1.24z" fill="#046a38" fill-rule="nonzero"/><path d="M259.6 213.95c.66-.7 1.08-2.08 1.23-3.74.16-1.69.04-3.67-.41-5.53-.45-1.89-1.14-3.28-1.88-3.97l-.01-.01c-.2-.18-.4-.32-.6-.39a.914.914 0 00-.54-.03c-.21.05-.42.18-.63.39-.65.7-1.07 2.08-1.22 3.74-.16 1.69-.04 3.67.4 5.53.45 1.89 1.14 3.28 1.88 3.97.21.19.41.32.61.4.19.06.37.08.55.03.21-.05.42-.18.62-.39zm1.8-3.69c-.17 1.78-.64 3.29-1.38 4.08-.28.3-.59.49-.91.56-.29.07-.58.05-.87-.06-.28-.1-.55-.27-.81-.52-.81-.76-1.57-2.25-2.04-4.25-.46-1.91-.59-3.96-.42-5.71.16-1.78.64-3.29 1.38-4.07.28-.31.59-.5.91-.57.28-.07.58-.05.87.06.27.1.53.27.79.5l.01.02c.82.76 1.57 2.25 2.05 4.25.46 1.91.58 3.96.42 5.71z" fill-rule="nonzero"/><path d="M259.81 214.14c1.39-1.49 1.79-5.75.89-9.52-.9-3.78-2.75-5.63-4.15-4.14-1.39 1.49-1.78 5.75-.88 9.52.89 3.78 2.75 5.63 4.14 4.14z" fill="#046a38" fill-rule="nonzero"/><path d="M257.88 207.33c.58-.8.93-2.17 1.03-3.74.09-1.63-.09-3.45-.58-5.09-.33-1.11-.76-1.98-1.22-2.56-.29-.37-.6-.61-.88-.72a.856.856 0 00-.7.05c-.17.09-.34.25-.5.47-.6.8-.96 2.19-1.05 3.77-.1 1.63.08 3.45.57 5.09.33 1.11.76 1.98 1.22 2.56.3.37.6.61.88.72.24.08.48.07.7-.05.17-.09.34-.25.5-.47l.03-.03zm2.05-3.68c-.11 1.75-.52 3.32-1.23 4.29l-.02.03c-.26.34-.54.6-.84.76-.49.27-1.02.3-1.53.11-.47-.17-.93-.52-1.34-1.04-.54-.68-1.03-1.67-1.41-2.91-.52-1.74-.71-3.69-.61-5.43.11-1.78.54-3.37 1.25-4.33.26-.34.54-.59.84-.76.49-.27 1.02-.3 1.54-.11.46.17.92.52 1.33 1.04.55.68 1.04 1.67 1.41 2.91.52 1.75.71 3.7.61 5.44z" fill-rule="nonzero"/><path d="M258.26 207.66c1.32-1.76 1.57-5.93.57-9.3-1.01-3.38-2.9-4.69-4.21-2.92-1.32 1.76-1.57 5.93-.56 9.3 1 3.38 2.89 4.69 4.2 2.92z" fill="#046a38" fill-rule="nonzero"/><path d="M253.26 205.32c.6-.8.96-2.19 1.05-3.77.1-1.63-.08-3.45-.57-5.08-.33-1.12-.76-1.99-1.22-2.57-.3-.37-.6-.61-.88-.72a.856.856 0 00-.7.05c-.17.1-.34.25-.5.47-.6.81-.96 2.19-1.06 3.78-.09 1.62.09 3.45.58 5.08.33 1.11.76 1.98 1.22 2.56.29.37.6.62.88.72.24.09.48.07.7-.05.17-.09.34-.25.5-.47zm2.08-3.71c-.11 1.78-.54 3.36-1.25 4.32-.26.34-.54.6-.84.76-.49.27-1.02.3-1.54.11-.46-.17-.92-.52-1.33-1.04-.55-.68-1.04-1.67-1.41-2.91-.52-1.74-.71-3.69-.61-5.43.11-1.78.54-3.37 1.25-4.33.26-.34.54-.59.84-.76.49-.27 1.02-.3 1.54-.11.46.17.92.52 1.33 1.04.55.68 1.04 1.67 1.41 2.91.52 1.75.71 3.7.61 5.44z" fill-rule="nonzero"/><path d="M253.67 205.62c1.32-1.76 1.57-5.92.57-9.3-1.01-3.38-2.9-4.69-4.22-2.92-1.31 1.76-1.56 5.93-.55 9.3 1 3.38 2.89 4.69 4.2 2.92z" fill="#046a38" fill-rule="nonzero"/><path d="M246.86 142.73c-1.13 1.07-9.9 10.1-8.82 32.45 1.22 23.08 20.81 34.33 22.33 35.17h2.84v-67.62h-16.35zm-9.68 32.49c-1.14-23.56 8.61-32.69 9.2-33.22a.412.412 0 01.31-.14h16.95c.24 0 .43.2.43.44v68.48c0 .24-.19.43-.43.43h-3.38c-.07 0-.14-.02-.2-.05-.06-.04-21.59-11.47-22.88-35.94z" fill-rule="nonzero"/><path d="M246.69 142.3s-10.25 8.85-9.08 32.9c1.28 24.22 22.65 35.58 22.65 35.58h3.38V142.3h-16.95z" fill="#9063cd" fill-rule="nonzero"/><path d="M271.6 219.2c.59-1.45.89-3.2.89-4.85 0-1.64-.28-3.17-.86-4.21-.22-.4-.46-.69-.71-.87-.27-.19-.55-.26-.84-.22h-.01c-.3.05-.62.23-.93.53-.44.43-.86 1.09-1.22 1.98-.59 1.45-.88 3.2-.88 4.85-.01 1.63.28 3.17.85 4.21.22.4.46.69.72.87.26.19.55.26.83.22h.01c.31-.05.62-.23.93-.53.44-.43.87-1.1 1.22-1.98zm1.62-4.85c-.01 1.74-.32 3.59-.94 5.12-.4.98-.88 1.73-1.39 2.23-.42.4-.87.65-1.32.72h-.01c-.48.08-.95-.03-1.38-.35-.34-.24-.66-.61-.93-1.1-.63-1.15-.94-2.81-.94-4.56 0-1.74.31-3.59.93-5.12.4-.98.88-1.73 1.4-2.23.41-.4.86-.65 1.31-.72l.02-.01c.47-.07.94.04 1.37.35.34.25.66.62.93 1.11.63 1.15.95 2.81.95 4.56z" fill-rule="nonzero"/><path d="M271.94 219.34c1.21-2.99 1.22-7.19.01-9.37-1.2-2.19-3.16-1.54-4.37 1.45s-1.21 7.19-.01 9.37c1.21 2.19 3.16 1.53 4.37-1.45z" fill="#046a38" fill-rule="nonzero"/><path d="M266.65 217.91c.58-1.45.88-3.19.88-4.83 0-1.64-.29-3.17-.86-4.21-.22-.4-.46-.69-.71-.87-.27-.19-.56-.27-.84-.22-.31.04-.63.23-.94.53-.44.43-.86 1.09-1.22 1.98-.59 1.45-.88 3.2-.88 4.84-.01 1.64.28 3.17.85 4.21.22.4.46.69.71.87.27.2.56.27.84.22.31-.04.63-.22.94-.53.45-.43.87-1.09 1.22-1.97l.01-.02zm1.6-4.83c0 1.73-.31 3.57-.92 5.1l-.01.02c-.4.98-.87 1.72-1.39 2.22-.43.41-.88.66-1.34.73-.47.08-.94-.04-1.37-.35-.34-.24-.66-.61-.93-1.11-.63-1.14-.94-2.8-.94-4.56 0-1.73.31-3.58.93-5.12.4-.98.88-1.73 1.39-2.22.43-.41.88-.66 1.34-.73.47-.07.94.04 1.37.35.34.24.66.61.93 1.11.63 1.14.95 2.8.94 4.56z" fill-rule="nonzero"/><path d="M266.98 218.06c1.21-2.99 1.22-7.18.01-9.37-1.2-2.18-3.16-1.53-4.37 1.46s-1.21 7.18-.01 9.37c1.2 2.18 3.16 1.53 4.37-1.46z" fill="#046a38" fill-rule="nonzero"/><path d="M264.17 210.82c.59-1.45.89-3.2.89-4.85 0-1.63-.28-3.17-.86-4.21-.22-.4-.46-.69-.71-.87-.27-.19-.55-.26-.84-.22h-.01c-.3.05-.62.23-.93.53-.44.43-.86 1.1-1.22 1.98-.59 1.45-.88 3.2-.89 4.85 0 1.64.29 3.17.86 4.21.22.4.46.69.71.87.27.19.56.26.84.22h.01c.31-.05.62-.23.93-.53.44-.43.87-1.1 1.22-1.98zm1.62-4.85c-.01 1.74-.32 3.59-.94 5.12-.4.98-.88 1.73-1.39 2.23-.42.4-.87.65-1.32.72l-.01.01c-.48.07-.95-.04-1.38-.35-.34-.25-.66-.62-.93-1.11-.63-1.15-.94-2.81-.94-4.56 0-1.74.31-3.59.93-5.12.4-.98.88-1.73 1.39-2.22.43-.41.87-.66 1.32-.73h.02c.47-.08.94.03 1.37.34.34.25.66.62.93 1.11.63 1.15.95 2.81.95 4.56z" fill-rule="nonzero"/><path d="M264.51 210.96c1.21-2.99 1.22-7.19.01-9.37-1.2-2.19-3.16-1.53-4.37 1.45-1.21 2.99-1.21 7.19-.01 9.37 1.21 2.19 3.16 1.54 4.37-1.45z" fill="#046a38" fill-rule="nonzero"/><path d="M269.97 210c.4-1.9.47-3.91.27-5.6-.2-1.67-.67-3.04-1.37-3.69-.2-.2-.41-.32-.62-.36-.22-.05-.44-.02-.66.08h-.01c-.23.1-.46.27-.68.51-.74.78-1.4 2.24-1.81 4.17-.41 1.91-.48 3.92-.28 5.61.21 1.67.68 3.04 1.37 3.69.21.2.42.31.63.36.21.04.43.02.65-.08.23-.1.47-.27.7-.51.73-.78 1.4-2.24 1.81-4.18zm.64-5.65c.21 1.73.13 3.78-.28 5.73-.43 2-1.13 3.53-1.91 4.35-.26.28-.53.48-.81.6-.29.13-.58.16-.88.1-.28-.06-.55-.21-.81-.45-.75-.72-1.26-2.16-1.47-3.92-.21-1.72-.14-3.77.28-5.72.42-2.01 1.12-3.53 1.9-4.36.26-.27.53-.47.81-.59h.01c.28-.13.58-.16.87-.1.28.06.55.21.81.45.75.72 1.27 2.16 1.48 3.91z" fill-rule="nonzero"/><path d="M270.15 210.04c.81-3.86.3-8.09-1.15-9.47-1.44-1.37-3.28.65-4.09 4.51-.82 3.86-.31 8.09 1.14 9.46 1.45 1.38 3.28-.64 4.1-4.5z" fill="#046a38" fill-rule="nonzero"/><path d="M276.76 211.88c.47-1.7.61-3.57.48-5.21-.13-1.62-.53-3.01-1.17-3.79-.24-.29-.49-.47-.74-.54a1.027 1.027 0 00-.55.01c-.19.05-.39.16-.58.32-.7.57-1.35 1.75-1.8 3.4-.46 1.7-.61 3.57-.48 5.21.13 1.62.53 3.01 1.17 3.79.24.29.49.47.75.54h.01c.18.05.35.04.53-.01.19-.05.39-.16.59-.32.69-.58 1.35-1.75 1.79-3.4zm1.03-5.26c.14 1.71-.02 3.64-.5 5.4-.47 1.76-1.19 3.04-1.97 3.68-.26.21-.52.35-.79.43-.28.08-.55.08-.82.01h-.01c-.37-.1-.71-.34-1.03-.72-.71-.87-1.16-2.37-1.29-4.1-.14-1.7.01-3.64.49-5.4.48-1.76 1.2-3.03 1.98-3.67.25-.21.52-.35.78-.43.29-.08.57-.08.84-.01.36.1.71.34 1.03.72.71.87 1.15 2.37 1.29 4.09z" fill-rule="nonzero"/><path d="M277.03 211.95c.94-3.46.61-7.6-.74-9.25-1.36-1.64-3.21-.17-4.15 3.3-.94 3.46-.61 7.6.74 9.24 1.35 1.65 3.21.17 4.15-3.29z" fill="#046a38" fill-rule="nonzero"/><path d="M273.32 208.78c.46-1.7.61-3.57.48-5.21-.13-1.62-.53-3.02-1.17-3.79-.24-.3-.49-.47-.74-.54a.937.937 0 00-.55.01c-.19.05-.39.16-.58.32-.7.57-1.35 1.75-1.8 3.4-.46 1.7-.61 3.57-.48 5.21.13 1.62.53 3.01 1.17 3.79.24.29.49.47.75.54.18.04.36.04.54-.01.19-.05.39-.17.59-.33l.01-.01c.69-.57 1.34-1.74 1.78-3.38zm1.03-5.26c.14 1.71-.02 3.64-.5 5.4-.47 1.75-1.18 3.02-1.96 3.66l-.01.02c-.26.2-.52.35-.79.43-.28.08-.56.08-.83.01-.36-.1-.72-.34-1.03-.72-.71-.87-1.16-2.37-1.3-4.1-.13-1.7.02-3.64.5-5.4.48-1.76 1.2-3.03 1.98-3.67.25-.21.52-.35.78-.43.29-.08.57-.09.84-.01.36.1.71.33 1.03.72.71.87 1.15 2.37 1.29 4.09z" fill-rule="nonzero"/><path d="M273.59 208.85c.94-3.46.61-7.6-.75-9.25-1.35-1.64-3.2-.17-4.14 3.29-.94 3.47-.61 7.61.74 9.25 1.35 1.65 3.21.17 4.15-3.29z" fill="#046a38" fill-rule="nonzero"/><path d="M269.01 204.49c.46-1.7.61-3.57.48-5.21-.13-1.62-.54-3.02-1.17-3.79-.24-.29-.5-.47-.75-.54h-.01a.955.955 0 00-.53.01c-.19.05-.4.16-.59.32-.7.57-1.35 1.75-1.79 3.4-.47 1.7-.62 3.57-.48 5.21.13 1.62.53 3.01 1.17 3.79.23.29.49.47.74.54.18.05.36.04.54-.01.2-.05.4-.17.59-.33.7-.57 1.35-1.74 1.8-3.39zm1.02-5.25c.14 1.7-.02 3.63-.49 5.39-.48 1.76-1.2 3.04-1.98 3.68-.231.196-.5.343-.79.43-.28.08-.56.08-.83.01-.36-.1-.71-.34-1.03-.72-.71-.87-1.15-2.37-1.29-4.1-.14-1.7.02-3.64.49-5.4.48-1.76 1.2-3.03 1.98-3.67.26-.21.52-.35.79-.43.27-.08.55-.08.82-.02l.01.01c.36.1.71.33 1.03.72.71.87 1.16 2.37 1.29 4.1z" fill-rule="nonzero"/><path d="M269.27 204.56c.94-3.46.61-7.6-.74-9.25-1.35-1.64-3.21-.17-4.15 3.3-.94 3.46-.61 7.6.74 9.24 1.35 1.65 3.21.17 4.15-3.29z" fill="#046a38" fill-rule="nonzero"/><path d="M264.8 201.67c.47-1.7.61-3.57.48-5.21-.13-1.62-.53-3.01-1.17-3.79-.23-.29-.49-.47-.74-.54h-.02a.92.92 0 00-.52.01c-.2.05-.4.16-.59.33h-.02c-.69.58-1.33 1.75-1.78 3.39-.46 1.7-.61 3.57-.48 5.21.13 1.62.53 3.01 1.17 3.79.24.29.5.47.75.54h.01c.18.05.35.04.53-.01.19-.05.39-.16.59-.33l.01-.01c.69-.57 1.34-1.74 1.78-3.38zm1.03-5.25c.14 1.7-.02 3.63-.49 5.4-.48 1.74-1.19 3.01-1.97 3.65l-.01.02c-.26.21-.52.35-.79.43-.27.08-.55.08-.82.01h-.01c-.37-.1-.72-.34-1.03-.72-.71-.87-1.16-2.37-1.29-4.1-.14-1.7.01-3.64.49-5.4.48-1.74 1.19-3.01 1.96-3.65l.02-.02c.25-.21.52-.35.79-.43.27-.08.55-.08.82-.01h.01c.36.1.71.33 1.03.72.71.87 1.15 2.37 1.29 4.1z" fill-rule="nonzero"/><path d="M265.07 201.74c.94-3.46.61-7.6-.74-9.25-1.35-1.64-3.21-.17-4.15 3.3-.94 3.46-.61 7.6.74 9.24 1.35 1.65 3.21.18 4.15-3.29z" fill="#046a38" fill-rule="nonzero"/><path d="M278.96 207.84c2.13-.92 2.9-4.47 2.42-9.44-.49-5.02-2.25-11.48-5.16-18.19l-.01-.01c-2.92-6.71-6.44-12.4-9.78-16.18-3.31-3.74-6.43-5.6-8.55-4.67-2.14.93-2.9 4.47-2.42 9.45.48 5.01 2.24 11.47 5.16 18.19 2.92 6.71 6.44 12.4 9.78 16.18 3.31 3.75 6.43 5.6 8.56 4.67zm2.65-9.46c.49 5.08-.32 8.71-2.56 9.68-2.23.97-5.44-.91-8.82-4.74-3.36-3.79-6.9-9.51-9.82-16.24-2.93-6.74-4.7-13.22-5.19-18.26-.49-5.08.33-8.71 2.56-9.68 2.24-.97 5.45.91 8.82 4.73 3.36 3.79 6.9 9.5 9.82 16.24l.01.01c2.93 6.74 4.69 13.22 5.18 18.26z" fill-rule="nonzero"/><path d="M279.01 207.95c4.36-1.9 3.16-14.34-2.69-27.79s-14.13-22.81-18.49-20.92c-4.37 1.9-3.17 14.34 2.68 27.79s14.13 22.82 18.5 20.92z" fill="#d50032" fill-rule="nonzero"/><path d="M264.32 150.44c0-.77-.35-1.46-.93-1.97-.59-.51-1.41-.83-2.31-.83-.91 0-1.73.32-2.32.83-.57.51-.93 1.2-.93 1.97 0 .76.36 1.46.93 1.97.59.51 1.41.83 2.32.83.9 0 1.72-.32 2.31-.83.58-.51.93-1.21.93-1.97zm-.51-2.44c.71.62 1.15 1.48 1.15 2.44 0 .95-.44 1.82-1.15 2.44-.7.62-1.67 1-2.73 1-1.07 0-2.03-.38-2.73-1-.72-.62-1.16-1.49-1.16-2.44 0-.96.44-1.82 1.16-2.44.7-.62 1.66-1 2.73-1 1.06 0 2.03.38 2.73 1z" fill-rule="nonzero"/><path d="M264.64 150.44c0-1.72-1.59-3.12-3.56-3.12s-3.57 1.4-3.57 3.12c0 1.72 1.6 3.12 3.57 3.12 1.97 0 3.56-1.4 3.56-3.12z" fill="#046a38" fill-rule="nonzero"/><path d="M263.89 146.53c0-.77-.36-1.46-.94-1.97-.59-.51-1.41-.83-2.31-.83-.91 0-1.73.32-2.31.83-.58.51-.94 1.2-.94 1.97 0 .76.36 1.46.94 1.96.58.52 1.4.84 2.31.84.9 0 1.72-.32 2.31-.84.58-.5.94-1.2.94-1.96zm-.52-2.45c.71.63 1.15 1.49 1.15 2.45 0 .95-.44 1.82-1.15 2.44-.7.61-1.67 1-2.73 1s-2.03-.39-2.73-1c-.71-.62-1.16-1.49-1.16-2.44 0-.96.45-1.82 1.16-2.45.7-.61 1.67-.99 2.73-.99s2.03.38 2.73.99z" fill-rule="nonzero"/><path d="M264.21 146.53c0-1.72-1.6-3.12-3.57-3.12-1.97 0-3.57 1.4-3.57 3.12 0 1.72 1.6 3.12 3.57 3.12 1.97 0 3.57-1.4 3.57-3.12z" fill="#046a38" fill-rule="nonzero"/><path d="M258.72 151.23c0-.83-.34-1.58-.89-2.12-.54-.54-1.3-.88-2.14-.88-.84 0-1.6.34-2.14.88a2.963 2.963 0 00-.89 2.12c0 .83.34 1.58.89 2.12.54.54 1.3.88 2.14.88.84 0 1.6-.34 2.14-.88.55-.54.89-1.29.89-2.12zm-.44-2.57a3.596 3.596 0 010 5.14c-.66.66-1.58 1.07-2.59 1.07-1.01 0-1.93-.41-2.59-1.07a3.596 3.596 0 010-5.14 3.65 3.65 0 012.59-1.06c1.01 0 1.93.4 2.59 1.06z" fill-rule="nonzero"/><path d="M259.04 151.23c0-1.83-1.5-3.32-3.35-3.32s-3.35 1.49-3.35 3.32c0 1.83 1.5 3.32 3.35 3.32s3.35-1.49 3.35-3.32z" fill="#046a38" fill-rule="nonzero"/><path d="M259.74 146.97c0-.81-.34-1.55-.88-2.08a3.092 3.092 0 00-2.15-.86c-.84 0-1.6.33-2.15.86-.54.53-.88 1.27-.88 2.08 0 .82.34 1.55.88 2.09.55.53 1.31.86 2.15.86.84 0 1.6-.33 2.15-.86.54-.54.88-1.27.88-2.09zm-.44-2.53c.66.65 1.08 1.54 1.08 2.53 0 .99-.42 1.89-1.08 2.54-.67.65-1.58 1.05-2.59 1.05-1.01 0-1.93-.4-2.59-1.05a3.57 3.57 0 01-1.08-2.54c0-.99.42-1.88 1.08-2.53.66-.65 1.58-1.05 2.59-1.05 1.01 0 1.92.4 2.59 1.05z" fill-rule="nonzero"/><path d="M260.06 146.97c0-1.8-1.5-3.26-3.35-3.26s-3.35 1.46-3.35 3.26c0 1.81 1.5 3.27 3.35 3.27s3.35-1.46 3.35-3.27z" fill="#046a38" fill-rule="nonzero"/><path d="M254.64 147.07c0-.82-.38-1.56-1-2.1-.63-.55-1.5-.89-2.46-.89-.97 0-1.84.34-2.47.89-.62.54-1 1.28-1 2.1 0 .82.38 1.57 1 2.11.63.55 1.5.89 2.47.89.96 0 1.83-.34 2.46-.89.62-.54 1-1.29 1-2.11zm-.58-2.58c.75.66 1.22 1.57 1.22 2.58s-.47 1.93-1.22 2.59c-.74.65-1.76 1.05-2.88 1.05-1.13 0-2.15-.41-2.89-1.05-.75-.66-1.22-1.58-1.22-2.59 0-1.01.47-1.92 1.22-2.58.74-.65 1.76-1.05 2.89-1.05 1.12 0 2.14.4 2.88 1.05z" fill-rule="nonzero"/><path d="M254.96 147.07c0-1.83-1.69-3.31-3.78-3.31s-3.79 1.48-3.79 3.31 1.7 3.32 3.79 3.32 3.78-1.49 3.78-3.32z" fill="#046a38" fill-rule="nonzero"/><path d="M261.34 141.58c0-.77-.36-1.46-.93-1.97-.59-.51-1.41-.83-2.32-.83-.9 0-1.72.32-2.31.83-.58.51-.94 1.2-.94 1.97 0 .76.36 1.46.94 1.96.59.52 1.41.84 2.31.84.91 0 1.73-.32 2.32-.84.57-.5.93-1.2.93-1.96zm-.52-2.45c.72.63 1.16 1.49 1.16 2.45 0 .95-.44 1.82-1.16 2.44-.7.62-1.67 1-2.73 1s-2.03-.38-2.73-1c-.71-.62-1.15-1.49-1.15-2.44 0-.96.44-1.82 1.15-2.45.7-.61 1.67-.99 2.73-.99 1.07 0 2.03.38 2.73.99z" fill-rule="nonzero"/><path d="M261.66 141.58c0-1.72-1.6-3.12-3.57-3.12-1.97 0-3.57 1.4-3.57 3.12 0 1.72 1.6 3.12 3.57 3.12 1.97 0 3.57-1.4 3.57-3.12z" fill="#046a38" fill-rule="nonzero"/><path d="M256.39 142.17c0-.81-.34-1.55-.88-2.08a3.102 3.102 0 00-2.15-.87c-.84 0-1.6.34-2.15.87a2.901 2.901 0 000 4.16c.55.54 1.31.87 2.15.87.84 0 1.6-.33 2.15-.87.562-.546.88-1.297.88-2.08zm-.44-2.54c.66.65 1.08 1.55 1.08 2.54s-.42 1.89-1.08 2.54c-.66.65-1.58 1.05-2.59 1.05-1.01 0-1.93-.4-2.59-1.05a3.57 3.57 0 01-1.08-2.54c0-.99.42-1.89 1.08-2.54.66-.64 1.58-1.04 2.59-1.04 1.01 0 1.93.4 2.59 1.04z" fill-rule="nonzero"/><path d="M256.71 142.17c0-1.8-1.5-3.26-3.35-3.26s-3.35 1.46-3.35 3.26c0 1.81 1.5 3.27 3.35 3.27s3.35-1.46 3.35-3.27z" fill="#046a38" fill-rule="nonzero"/><path d="M249.26 147.27c0-.83-.34-1.58-.89-2.12a3.072 3.072 0 00-4.29 0 2.995 2.995 0 000 4.24 3.072 3.072 0 004.29 0c.55-.54.89-1.29.89-2.12zm-.44-2.57c.66.66 1.07 1.57 1.07 2.57 0 1-.41 1.91-1.07 2.57-.67.66-1.58 1.07-2.59 1.07a3.702 3.702 0 01-2.6-1.07 3.631 3.631 0 01-1.07-2.57c0-1 .41-1.91 1.07-2.57.67-.66 1.59-1.06 2.6-1.06s1.92.4 2.59 1.06z" fill-rule="nonzero"/><path d="M249.58 147.27c0-1.83-1.5-3.32-3.35-3.32s-3.35 1.49-3.35 3.32c0 1.83 1.5 3.32 3.35 3.32s3.35-1.49 3.35-3.32z" fill="#046a38" fill-rule="nonzero"/><path d="M250.42 144.8c0-.82-.34-1.55-.88-2.09a3.092 3.092 0 00-2.15-.86c-.84 0-1.6.33-2.15.86a2.94 2.94 0 00-.88 2.09c0 .81.34 1.55.89 2.08.54.53 1.3.86 2.14.86.84 0 1.6-.33 2.15-.86.54-.53.88-1.27.88-2.08zm-.44-2.54c.66.65 1.08 1.55 1.08 2.54s-.42 1.89-1.08 2.53c-.66.65-1.58 1.05-2.59 1.05-1.01 0-1.92-.4-2.59-1.05a3.531 3.531 0 01-1.08-2.53c0-.99.42-1.89 1.08-2.54.67-.65 1.58-1.05 2.59-1.05 1.01 0 1.93.4 2.59 1.05z" fill-rule="nonzero"/><path d="M250.74 144.8c0-1.81-1.5-3.27-3.35-3.27s-3.35 1.46-3.35 3.27c0 1.8 1.5 3.26 3.35 3.26s3.35-1.46 3.35-3.26z" fill="#046a38" fill-rule="nonzero"/><path d="M251.8 142.02c0-.81-.33-1.55-.88-2.08a3.092 3.092 0 00-2.15-.86c-.83 0-1.59.33-2.14.86a2.886 2.886 0 000 4.17c.54.53 1.31.86 2.14.86.84 0 1.6-.33 2.15-.86a2.897 2.897 0 00.88-2.09zm-.44-2.53c.67.65 1.08 1.55 1.08 2.53 0 1-.41 1.89-1.08 2.54-.66.65-1.58 1.05-2.59 1.05-1.01 0-1.92-.4-2.59-1.05a3.541 3.541 0 01-1.07-2.54c0-.98.41-1.88 1.08-2.53.66-.65 1.58-1.05 2.58-1.05 1.01 0 1.93.4 2.59 1.05z" fill-rule="nonzero"/><path d="M252.12 142.02c0-1.8-1.5-3.26-3.35-3.26-1.84 0-3.34 1.46-3.34 3.26 0 1.81 1.5 3.27 3.34 3.27 1.85 0 3.35-1.46 3.35-3.27z" fill="#046a38" fill-rule="nonzero"/><path d="M283.61 208.26c2.68-1.18 3.71-5.45 3.22-11.4-.49-6.01-2.56-13.72-6.07-21.68-3.51-7.97-7.81-14.69-11.92-19.11-4.06-4.37-7.91-6.49-10.59-5.31-2.68 1.18-3.71 5.45-3.22 11.4.49 6.01 2.55 13.72 6.07 21.69 3.51 7.96 7.81 14.68 11.92 19.11 4.06 4.37 7.91 6.48 10.59 5.3zm3.63-11.43c.5 6.12-.61 10.54-3.47 11.8-2.85 1.26-6.87-.9-11.05-5.4-4.13-4.45-8.46-11.21-11.99-19.22-3.54-8.01-5.61-15.76-6.11-21.82-.5-6.12.61-10.54 3.47-11.8 2.85-1.26 6.87.9 11.05 5.4 4.13 4.45 8.46 11.21 11.99 19.22 3.54 8.01 5.61 15.77 6.11 21.82z" fill-rule="nonzero"/><path d="M283.69 208.44c5.53-2.44 4.3-17.37-2.74-33.35-7.05-15.97-17.25-26.95-22.78-24.51-5.53 2.44-4.3 17.37 2.74 33.35 7.05 15.98 17.25 26.95 22.78 24.51z" fill="#046a38" fill-rule="nonzero"/><path d="M282.47 190.24c.34-.15.44-.87.32-1.93-.13-1.21-.57-2.78-1.3-4.41-.72-1.64-1.58-3.03-2.38-3.95l-.02-.02c-.7-.78-1.29-1.19-1.63-1.05-.33.15-.43.88-.32 1.94.14 1.21.58 2.77 1.3 4.41.73 1.64 1.59 3.03 2.39 3.94l.02.02c.69.79 1.29 1.2 1.62 1.05zm1.18-2.02c.16 1.44-.11 2.49-.83 2.81-.71.32-1.66-.19-2.61-1.27l-.03-.02c-.85-.98-1.77-2.44-2.52-4.16-.76-1.72-1.23-3.38-1.37-4.67-.16-1.44.1-2.5.83-2.82.71-.31 1.66.2 2.61 1.27l.02.03c.86.97 1.77 2.43 2.53 4.15.76 1.73 1.23 3.38 1.37 4.68z" fill-rule="nonzero"/><path d="M282.65 190.64c1.06-.47.72-3.57-.76-6.92-1.48-3.36-3.54-5.7-4.6-5.23-1.06.47-.72 3.56.76 6.92 1.48 3.35 3.54 5.69 4.6 5.23z" fill="#046a38" fill-rule="nonzero"/><path d="M279.35 184.3c4.5 5.51 6.48 10.03 7.21 13.92.74 3.89.22 7.12-.25 10.06-.04.24-.26.4-.49.36a.381.381 0 01-.25-.13l-12.64-13.57a.46.46 0 01-.11-.29v-13.63c0-.24.19-.43.43-.43.09 0 .18.03.25.08l5.74 3.54.11.09zm6.37 14.07c-.71-3.74-2.63-8.11-7-13.47l-5.04-3.11v12.69l11.92 12.8c.41-2.64.75-5.53.12-8.91z" fill-rule="nonzero"/><path d="M279.01 184.57c8.91 10.89 7.81 17.82 6.87 23.65l-12.63-13.57v-13.63l5.76 3.55z" fill="#046a38" fill-rule="nonzero"/><path d="M280.12 193.12c4.53 5.5 6.51 10.01 7.25 13.89.74 3.89.23 7.12-.24 10.07-.04.23-.26.39-.5.36a.433.433 0 01-.29-.2l-17.18-26.61a.393.393 0 01-.07-.23v-17.88a.434.434 0 01.84-.14c.29.77.52 1.65.78 2.68.96 3.76 2.44 9.53 9.39 18.03l.02.03zm6.4 14.05c-.71-3.75-2.65-8.14-7.06-13.51l-.02-.02c-6.89-8.42-8.5-14.22-9.49-18.06v14.69l16.5 25.56c.39-2.58.7-5.39.07-8.66z" fill-rule="nonzero"/><path d="M279.77 193.37c8.97 10.89 7.86 17.82 6.93 23.64l-17.18-26.61v-17.88c1.34 3.49 1.34 9.96 10.25 20.85z" fill="#046a38" fill-rule="nonzero"/><path d="M280.4 200.21c9.24 10.77 8.26 17.85 7.43 23.81v.04c-.04.23-.25.4-.49.37a.44.44 0 01-.35-.29l-.37-.85c-2.67-6.17-4.54-10.48-13.29-20.67-7.76-9.09-6.01-16.09-4.9-20.54.21-.87.41-1.63.49-2.28.03-.23.25-.4.48-.37.16.02.29.13.35.27.33.78.58 1.69.88 2.75 1.06 3.73 2.68 9.45 9.76 17.74l.01.02zm6.78 22.2c.69-5.48.79-12.05-7.43-21.64l-.04-.05c-7.18-8.42-8.83-14.24-9.91-18.04l-.34-1.19-.2.8c-1.06 4.28-2.74 11.02 4.72 19.77 8.58 9.98 10.61 14.39 13.2 20.35z" fill-rule="nonzero"/><path d="M280.06 200.47c9.14 10.66 8.15 17.65 7.34 23.53-2.91-6.7-4.54-10.95-13.75-21.66-9.14-10.72-4.83-18.47-4.3-22.48 1.45 3.43 1.57 9.9 10.71 20.61z" fill="#046a38" fill-rule="nonzero"/><path d="M278.52 184.53c.75-.38.98-1.81.73-3.82-.26-2.18-1.1-4.98-2.46-7.89-1.35-2.9-2.96-5.34-4.45-6.95-1.4-1.49-2.65-2.23-3.43-1.87-.77.36-1 1.79-.76 3.83.27 2.18 1.11 4.98 2.46 7.88 1.35 2.91 2.96 5.35 4.46 6.95 1.4 1.49 2.65 2.24 3.42 1.88l.03-.01zm1.59-3.92c.29 2.38-.1 4.13-1.21 4.69l-.04.02c-1.15.54-2.76-.3-4.42-2.07-1.56-1.67-3.22-4.19-4.61-7.18-1.39-2.98-2.26-5.88-2.54-8.14-.29-2.42.11-4.18 1.26-4.72 1.15-.53 2.75.3 4.41 2.08 1.56 1.67 3.23 4.19 4.62 7.17 1.39 2.99 2.25 5.88 2.53 8.15z" fill-rule="nonzero"/><path d="M278.67 184.93c1.93-.9 1.26-6.4-1.49-12.29-2.74-5.89-6.53-9.93-8.45-9.03-1.92.89-1.26 6.39 1.49 12.28 2.74 5.89 6.53 9.94 8.45 9.04z" fill="#046a38" fill-rule="nonzero"/><path d="M273.94 188.74c.66-.3.91-1.48.76-3.13-.16-1.8-.8-4.11-1.87-6.5l-.01-.01c-1.08-2.39-2.39-4.39-3.63-5.69-1.15-1.21-2.19-1.8-2.85-1.5-.66.29-.9 1.47-.76 3.13.16 1.8.8 4.11 1.87 6.49 1.08 2.39 2.39 4.4 3.64 5.71 1.14 1.2 2.19 1.8 2.85 1.5zm1.62-3.21c.18 2.04-.23 3.53-1.27 4-1.03.46-2.42-.22-3.83-1.7-1.3-1.37-2.67-3.46-3.79-5.93v-.01c-1.12-2.48-1.78-4.89-1.95-6.78-.18-2.03.23-3.52 1.26-3.99 1.04-.47 2.43.21 3.83 1.69 1.31 1.38 2.68 3.47 3.8 5.94v.01c1.12 2.48 1.78 4.89 1.95 6.77z" fill-rule="nonzero"/><path d="M274.12 189.13c1.7-.76 1.29-5.33-.9-10.2-2.2-4.86-5.36-8.19-7.06-7.42-1.7.77-1.3 5.34.9 10.2 2.2 4.87 5.36 8.19 7.06 7.42z" fill="#046a38" fill-rule="nonzero"/><path d="M269.53 192.96c.67-.28.93-1.45.82-3.11-.12-1.81-.72-4.13-1.75-6.53-1.03-2.42-2.3-4.45-3.52-5.78-1.12-1.23-2.16-1.84-2.83-1.55-.66.28-.93 1.45-.81 3.11.12 1.8.71 4.11 1.73 6.5l.03.07c1.03 2.39 2.29 4.41 3.51 5.74 1.12 1.22 2.15 1.84 2.82 1.55zm1.68-3.17c.14 2.03-.3 3.52-1.34 3.97-1.04.44-2.42-.27-3.8-1.77-1.28-1.4-2.6-3.51-3.67-6l-.01-.02c-1.07-2.5-1.68-4.92-1.81-6.81-.15-2.04.29-3.52 1.34-3.97 1.04-.44 2.41.26 3.79 1.77 1.28 1.4 2.61 3.51 3.68 6.01l.01.01c1.07 2.5 1.68 4.92 1.81 6.81z" fill-rule="nonzero"/><path d="M269.7 193.36c1.72-.73 1.4-5.31-.7-10.22-2.11-4.9-5.2-8.29-6.92-7.55-1.71.73-1.39 5.31.71 10.21 2.1 4.91 5.2 8.29 6.91 7.56z" fill="#046a38" fill-rule="nonzero"/><path d="M272.66 175.69c.48-.25.61-1.14.44-2.36l-.01-.01c-.19-1.36-.78-3.08-1.71-4.84-.93-1.75-2.03-3.2-3.06-4.13l-.02-.02c-.91-.81-1.7-1.19-2.17-.94l-.03.01c-.45.27-.58 1.15-.4 2.35v.01c.19 1.36.77 3.07 1.7 4.82l.02.03c.93 1.75 2.03 3.2 3.05 4.12.91.83 1.72 1.21 2.19.96zm1.29-2.48c.23 1.59-.05 2.8-.88 3.24-.83.44-1.99-.01-3.18-1.08-1.09-.99-2.25-2.52-3.23-4.35l-.01-.02c-.98-1.84-1.6-3.66-1.81-5.11v-.02c-.22-1.56.04-2.76.84-3.22l.04-.02c.82-.44 1.97 0 3.15 1.06l.03.02c1.09.99 2.26 2.52 3.24 4.37.98 1.84 1.6 3.66 1.81 5.11v.02z" fill-rule="nonzero"/><path d="M272.87 176.07c1.3-.69.81-4.18-1.11-7.79-1.92-3.6-4.53-5.96-5.84-5.27-1.3.7-.81 4.18 1.11 7.79 1.92 3.6 4.53 5.97 5.84 5.27z" fill="#046a38" fill-rule="nonzero"/><path d="M268.68 178.63c.49-.22.68-1.09.58-2.33-.11-1.37-.58-3.13-1.41-4.94-.82-1.81-1.83-3.33-2.79-4.31-.86-.89-1.64-1.32-2.13-1.1-.49.22-.68 1.1-.58 2.33.11 1.37.59 3.13 1.41 4.94v.01c.82 1.81 1.83 3.32 2.79 4.31.86.88 1.64 1.32 2.13 1.09zm1.44-2.39c.13 1.6-.22 2.79-1.08 3.18-.86.39-1.98-.13-3.11-1.28-1.02-1.05-2.09-2.65-2.95-4.55l-.01-.02c-.86-1.9-1.36-3.76-1.48-5.23-.13-1.6.23-2.79 1.08-3.18.86-.38 1.98.13 3.11 1.29 1.02 1.05 2.09 2.65 2.95 4.55l.01.01c.86 1.9 1.37 3.76 1.48 5.23z" fill-rule="nonzero"/><path d="M268.86 179.03c1.35-.62 1.07-4.12-.61-7.85-1.69-3.71-4.15-6.23-5.5-5.62-1.35.61-1.07 4.12.62 7.84 1.68 3.72 4.14 6.24 5.49 5.63z" fill="#046a38" fill-rule="nonzero"/><path d="M282.56 222.57c.12 0 .21.09.21.21 0 .11-.09.2-.21.2-.89 0-1.7.36-2.28.95-.58.58-.95 1.39-.95 2.28 0 .9.36 1.7.95 2.29.58.58 1.39.94 2.28.94.12 0 .21.09.21.21 0 .11-.09.2-.21.2-1 0-1.91-.41-2.57-1.07a3.597 3.597 0 01-1.07-2.57c0-1 .41-1.91 1.07-2.57.66-.66 1.57-1.07 2.57-1.07zm-24.74-51.81a.442.442 0 01.24-.56c.22-.09.47.02.56.23 1.29 3.16 2.72 5.89 3.99 7.76 1.17 1.71 2.12 2.68 2.58 2.49.47-.19.48-1.58.11-3.67-.4-2.28-1.3-5.3-2.6-8.51l-.1-.24c-.09-.22.01-.48.24-.57.22-.09.47.02.56.24l.11.28c1.31 3.26 2.23 6.32 2.64 8.65.44 2.52.27 4.26-.64 4.62-.89.36-2.2-.73-3.61-2.8-1.3-1.92-2.76-4.71-4.08-7.92z" fill-rule="nonzero"/><path d="M258.22 170.6c2.61 6.37 5.78 11.03 7.13 10.48 1.38-.55.37-6.26-2.25-12.74-.04-.08-.07-.17-.1-.25l-4.78 2.51zm0 0l2.27 1.96-2.27-1.96z" fill="#046a38" fill-rule="nonzero"/><path d="M268.24 171.03c.49-.22.67-1.09.58-2.33-.11-1.37-.59-3.13-1.41-4.94-.82-1.81-1.83-3.33-2.79-4.32-.86-.88-1.64-1.31-2.13-1.09h-.01c-.48.23-.67 1.1-.57 2.32.1 1.37.58 3.13 1.4 4.94l.01.02c.82 1.81 1.83 3.32 2.79 4.31.86.88 1.64 1.32 2.13 1.09zm1.44-2.39c.12 1.6-.23 2.79-1.08 3.18-.86.39-1.99-.13-3.11-1.28-1.02-1.05-2.08-2.64-2.94-4.54l-.03-.06c-.86-1.89-1.36-3.74-1.47-5.2-.13-1.58.21-2.76 1.05-3.16l.07-.03c.85-.36 1.96.16 3.07 1.29 1.02 1.05 2.09 2.66 2.95 4.55l.01.02c.86 1.9 1.36 3.76 1.48 5.23z" fill-rule="nonzero"/><path d="M268.42 171.43c1.35-.62 1.07-4.13-.62-7.85-1.68-3.72-4.14-6.24-5.49-5.62-1.35.61-1.07 4.12.61 7.84 1.69 3.72 4.15 6.24 5.5 5.63z" fill="#046a38" fill-rule="nonzero"/><path d="M263.67 173.24c.5-.22.7-1.09.63-2.32-.08-1.38-.52-3.14-1.3-4.97-.79-1.83-1.76-3.37-2.7-4.38-.85-.9-1.62-1.35-2.11-1.14-.5.21-.7 1.09-.63 2.32.08 1.37.52 3.14 1.3 4.97.79 1.83 1.76 3.37 2.7 4.37.85.91 1.62 1.36 2.11 1.15zm1.49-2.37c.09 1.61-.28 2.79-1.15 3.16-.86.37-1.97-.17-3.07-1.35-1.01-1.07-2.04-2.7-2.87-4.62-.82-1.92-1.29-3.8-1.37-5.26-.09-1.61.28-2.79 1.15-3.16.86-.37 1.98.17 3.07 1.35 1.01 1.07 2.04 2.7 2.87 4.62.82 1.92 1.29 3.79 1.37 5.26z" fill-rule="nonzero"/><path d="M263.84 173.63c1.36-.58 1.16-4.1-.45-7.85-1.61-3.76-4.01-6.33-5.37-5.74-1.36.58-1.16 4.09.45 7.85 1.61 3.75 4.01 6.32 5.37 5.74z" fill="#046a38" fill-rule="nonzero"/><path d="M254.88 161.91c-.12-.2-.06-.47.15-.59.2-.12.47-.06.59.14 1.29 2.12 2.62 3.91 3.74 5.09.99 1.05 1.73 1.62 1.99 1.47.26-.16.09-1.11-.39-2.52-.55-1.58-1.53-3.64-2.82-5.79l-.13-.21c-.12-.2-.05-.47.15-.59s.47-.06.59.15l.13.21c1.32 2.2 2.33 4.32 2.9 5.95.62 1.81.67 3.14.01 3.54-.65.39-1.77-.25-3.06-1.62-1.15-1.23-2.53-3.06-3.85-5.23z" fill-rule="nonzero"/><path d="M255.25 161.69c2.61 4.28 5.41 7.24 6.32 6.7.93-.56-.45-4.55-3.06-8.91-.05-.06-.09-.13-.13-.2l-3.13 2.41zm0 0l1.14-1.37-1.14 1.37z" fill="#046a38" fill-rule="nonzero"/><path d="M256.68 158.98a.424.424 0 01.17-.58c.21-.12.47-.04.59.17l.22.39c1.19 1.98 2.45 3.66 3.52 4.77.95.99 1.67 1.52 1.93 1.36.25-.15.14-.98-.24-2.2-.45-1.4-1.28-3.22-2.41-5.15-.12-.2-.05-.46.16-.59.2-.11.47-.05.59.16 1.16 1.98 2.02 3.87 2.48 5.32.51 1.63.5 2.82-.13 3.2-.66.39-1.76-.21-3-1.5-1.11-1.16-2.41-2.89-3.63-4.92l-.25-.43z" fill-rule="nonzero"/><path d="M257.06 158.78c.08.14.15.27.22.39 2.42 4.03 5.13 6.84 6.06 6.29.88-.53-.22-4.02-2.5-7.93l-3.78 1.25zm0 0l3.86-1.13-3.86 1.13z" fill="#046a38" fill-rule="nonzero"/><path d="M263.45 160.51c-.13-.2-.06-.47.14-.59s.47-.06.59.15c1.77 2.9 3.6 5.36 5.15 7 1.42 1.5 2.51 2.29 2.94 2.03l.01-.01c.43-.28.22-1.65-.45-3.63-.75-2.18-2.1-5.01-3.87-7.96l-.16-.26c-.12-.2-.05-.47.15-.59s.47-.06.59.15l.16.26c1.81 3 3.18 5.89 3.94 8.12.81 2.38.91 4.1.11 4.64l-.03.02c-.83.5-2.3-.37-4.02-2.18-1.58-1.68-3.46-4.19-5.25-7.15z" fill-rule="nonzero"/><path d="M263.81 160.29c3.57 5.87 7.42 9.94 8.68 9.18 1.29-.77-.58-6.24-4.17-12.21l-.15-.24-4.36 3.27zm0 0l4.44-3.15-4.44 3.15z" fill="#046a38" fill-rule="nonzero"/><path d="M259.41 156.7a.427.427 0 01.19-.58c.21-.11.47-.03.58.19l.04.08c1.2 2.26 2.48 4.2 3.57 5.5.98 1.16 1.72 1.81 2 1.66.27-.14.15-1.12-.27-2.58-.47-1.64-1.37-3.78-2.57-6.04-.13-.27-.31-.58-.46-.85a.424.424 0 01.17-.58c.21-.12.47-.04.59.17l.46.85c1.23 2.31 2.15 4.51 2.64 6.21.54 1.87.53 3.22-.16 3.58-.69.37-1.81-.37-3.06-1.87-1.13-1.34-2.44-3.34-3.67-5.64l-.05-.1z" fill-rule="nonzero"/><path d="M259.79 156.5c.5.98 4.67 8.24 6.2 7.43.96-.51-.23-4.63-2.66-9.2-.15-.29-.3-.58-.46-.86l-3.08 2.63zm0 0l3.08-2.61-3.08 2.61z" fill="#046a38" fill-rule="nonzero"/><path d="M262.95 147.2l-.08.1c-.6.7-.58 1.66-.27 2.61.34 1 1.01 1.98 1.67 2.62l.89.81c.6.54 1.45 1.32 2.49 2.15 3.67 2.92 9.68 6.36 14.41 1.17-2.43-.49-5.47-2.76-8.51-5.03-4.23-3.17-8.48-6.34-10.6-4.43zm-.73-.47l.14-.15c2.64-2.42 7.19.97 11.71 4.36 3.28 2.45 6.56 4.9 8.83 4.96.1 0 .2.03.28.09.19.15.22.42.07.61-5.27 6.63-12.06 2.8-16.14-.44-1.05-.83-1.92-1.63-2.53-2.19l-.91-.82c-.75-.72-1.5-1.83-1.88-2.97-.4-1.21-.4-2.47.42-3.44l.01-.01z" fill-rule="nonzero"/><path d="M262.65 146.9c-1.69 1.74.06 4.89 1.57 6.17 1.81 1.51 11.71 12.05 18.69 3.26-5.59-.12-16.07-13.28-20.26-9.43z" fill="#9063cd" fill-rule="nonzero"/><path d="M261.73 142.02l-.09.09c-.59.7-.57 1.67-.26 2.62.33 1 1 1.98 1.66 2.62.28.27.61.54.9.81.6.54 1.45 1.32 2.49 2.15 3.67 2.91 9.68 6.36 14.41 1.17-2.44-.49-5.47-2.76-8.51-5.03-4.23-3.17-8.48-6.35-10.6-4.43zm-.73-.47l.14-.15c2.64-2.43 7.18.97 11.71 4.35 3.28 2.46 6.55 4.9 8.83 4.97.1-.01.2.02.28.09.19.15.22.42.07.61-5.27 6.63-12.06 2.8-16.14-.44-1.05-.83-1.92-1.63-2.53-2.19l-.91-.82c-.75-.72-1.51-1.83-1.89-2.97-.4-1.21-.39-2.47.43-3.44l.01-.01z" fill-rule="nonzero"/><path d="M261.43 141.71c-1.69 1.75.05 4.89 1.57 6.18 1.8 1.51 11.7 12.05 18.69 3.26-5.59-.12-16.07-13.28-20.26-9.44z" fill="#9063cd" fill-rule="nonzero"/><path d="M260.16 137.07l-.09.09c-.59.7-.58 1.67-.26 2.62.33 1 1 1.98 1.66 2.62.29.28.64.54.93.83.58.54 1.42 1.3 2.46 2.13 3.67 2.91 9.68 6.36 14.41 1.17-2.44-.49-5.47-2.76-8.51-5.03-4.23-3.17-8.49-6.34-10.6-4.43zm-.74-.47l.14-.15c2.65-2.42 7.19.97 11.72 4.35 3.28 2.46 6.55 4.91 8.83 4.97.1-.01.2.02.28.09.18.15.21.42.07.61-5.28 6.63-12.06 2.8-16.14-.44-1.02-.81-1.89-1.61-2.51-2.17-.31-.27-.62-.56-.93-.84-.75-.72-1.51-1.83-1.89-2.97-.4-1.21-.4-2.47.42-3.44l.01-.01z" fill-rule="nonzero"/><path d="M259.85 136.76c-1.69 1.75.06 4.9 1.58 6.18 1.8 1.51 11.7 12.05 18.69 3.26-5.59-.12-16.07-13.28-20.27-9.44z" fill="#9063cd" fill-rule="nonzero"/><path d="M256.72 131.42l-.09.09c-.59.7-.57 1.67-.26 2.62.34 1 1 1.98 1.67 2.62.27.27.6.55.89.81.6.54 1.45 1.32 2.49 2.15 3.67 2.91 9.68 6.36 14.41 1.17-2.43-.49-5.47-2.76-8.51-5.03-4.23-3.17-8.48-6.34-10.6-4.43zm-.73-.47l.14-.15c2.64-2.42 7.18.97 11.71 4.36 3.28 2.45 6.56 4.89 8.83 4.96.1-.01.2.02.28.09.19.15.22.42.07.61-5.27 6.63-12.06 2.8-16.14-.44-1.05-.83-1.92-1.63-2.53-2.19l-.91-.82c-.75-.72-1.5-1.83-1.88-2.97-.41-1.21-.4-2.47.42-3.44l.01-.01z" fill-rule="nonzero"/><path d="M256.42 131.11c-1.69 1.75.06 4.89 1.57 6.18 1.8 1.51 11.7 12.05 18.69 3.26-5.59-.12-16.07-13.28-20.26-9.44z" fill="#9063cd" fill-rule="nonzero"/><path d="M244 125.34c1.91-1.43 4.62-2.33 7.51-2.49 2.7-.16 5.55.32 8.07 1.59 1.93.95 4.39 3.15 6.99 5.47 3.22 2.89 6.69 5.99 9.57 7.09.22.09.33.34.25.56-.06.14-.19.24-.33.27-1.91.33-3.46.34-4.83.13-1.29-.2-2.43-.59-3.58-1.11-2.27 1.62-3.86 2.57-5.46 3.21-1.65.66-3.29.97-5.71 1.32h-.02c-3.38.47-6.47.27-8.98-.48-2.6-.78-4.59-2.15-5.64-3.98-1.06-1.76-1.34-4.04-.95-6.18.39-2.11 1.45-4.1 3.09-5.38l.02-.02zm7.56-1.63c-2.72.15-5.27.99-7.04 2.32l-.01.01c-1.47 1.14-2.42 2.95-2.77 4.86-.36 1.94-.11 4 .84 5.58.94 1.64 2.75 2.88 5.15 3.59 2.39.72 5.36.91 8.61.46h.02c2.35-.35 3.95-.65 5.51-1.27 1.57-.62 3.14-1.59 5.48-3.26.12-.08.28-.1.43-.04 1.16.54 2.29.95 3.57 1.15.93.14 1.95.17 3.12.06-2.69-1.45-5.67-4.11-8.47-6.61-2.56-2.29-4.97-4.45-6.8-5.35-2.38-1.2-5.08-1.65-7.64-1.5z" fill-rule="nonzero"/><path d="M244.25 125.7c3.55-2.68 10.07-3.44 15.14-.88 4.25 2.1 11.29 10.54 16.59 12.58-3.72.64-5.99.06-8.38-1.05-4.72 3.38-6.41 3.91-11.18 4.61-6.7.93-12.23-.82-14.21-4.26-1.98-3.31-1.11-8.56 2.04-11z" fill="#9063cd" fill-rule="nonzero"/><path d="M254.48 130.96c0-.34-.27-.67-.71-.93-.5-.29-1.2-.47-1.99-.47-.78 0-1.49.18-1.99.47-.44.26-.71.59-.71.93 0 .34.27.67.71.92.5.29 1.21.47 1.99.47.79 0 1.49-.18 1.99-.47.44-.25.71-.58.71-.92zm-.31-1.62c.69.4 1.11.97 1.11 1.62 0 .65-.42 1.21-1.11 1.61-.61.36-1.46.58-2.39.58-.92 0-1.77-.22-2.39-.58-.68-.4-1.11-.96-1.11-1.61 0-.65.43-1.22 1.11-1.62.62-.35 1.47-.58 2.39-.58.93 0 1.77.23 2.39.58z" fill-rule="nonzero"/><path d="M254.88 130.96c0-.99-1.39-1.8-3.1-1.8-1.71 0-3.1.81-3.1 1.8s1.39 1.79 3.1 1.79c1.71 0 3.1-.8 3.1-1.79z" fill="#d50032" fill-rule="nonzero"/><path d="M252.68 130.84c0-.52-.48-.94-1.06-.94-.59 0-1.06.42-1.06.94 0 .51.47.93 1.06.93.58 0 1.06-.42 1.06-.93zm-9.4 9.53c1.06-.4 1.93-1.02 2.46-1.7.51-.66.72-1.37.49-1.98v-.01c-.23-.6-.85-1-1.66-1.16-.85-.17-1.91-.08-2.98.32-1.06.39-1.92 1.02-2.46 1.7-.51.65-.71 1.37-.49 1.97l.01.02c.23.6.84 1 1.65 1.16.86.17 1.92.07 2.98-.32zm2.78-1.45c-.58.74-1.5 1.41-2.64 1.83-1.13.42-2.27.52-3.19.34-.95-.19-1.68-.68-1.96-1.41l-.01-.02c-.28-.75-.05-1.6.55-2.37.58-.74 1.51-1.41 2.64-1.83 1.14-.43 2.28-.52 3.2-.34.94.19 1.67.67 1.95 1.41l.01.02c.28.75.05 1.6-.55 2.37z" fill-rule="nonzero"/><path d="M243.35 140.56c2.2-.82 3.58-2.58 3.07-3.94-.5-1.36-2.7-1.79-4.9-.97-2.2.82-3.57 2.58-3.07 3.93.51 1.36 2.7 1.8 4.9.98z" fill="#ffcd00" fill-rule="nonzero"/><path d="M245.2 133.28c.17.77-.05 1.7-.65 2.5l-.02.01c-.51.68-1.31 1.26-2.37 1.57-1.08.46-2.04 1.21-2.85 2.28-.79 1.04-1.44 2.39-1.92 4.05a.2.2 0 01-.25.14.223.223 0 01-.13-.12c-.66-1.52-1.11-2.88-1.38-4.08-.49-2.17-.39-3.85.11-5.11.51-1.28 1.45-2.13 2.62-2.64.37-.16.77-.29 1.18-.38 1.57-.5 2.84-.72 3.79-.5.99.24 1.62.95 1.87 2.28zm-.98 2.25c.53-.7.73-1.5.59-2.16-.22-1.17-.75-1.77-1.58-1.97-.86-.21-2.07 0-3.57.49h-.03c-.39.09-.77.21-1.11.36-1.08.47-1.93 1.25-2.4 2.42-.48 1.19-.56 2.79-.09 4.88.23 1.04.61 2.2 1.14 3.49.47-1.47 1.08-2.68 1.81-3.65.86-1.12 1.88-1.92 3.03-2.41h.03c.97-.29 1.7-.82 2.17-1.43l.01-.02z" fill-rule="nonzero"/><path d="M245 133.33c.3 1.34-.69 3.2-2.91 3.84-2.21.93-3.9 3.03-4.89 6.46-3.38-7.8-1.22-11.12 2.39-11.93 3.08-.99 4.95-.88 5.41 1.63z" fill="#ffcd00" fill-rule="nonzero"/><path d="M242.5 135.07c0-.41-.34-.75-.76-.75s-.75.34-.75.75c0 .42.33.76.75.76s.76-.34.76-.76z" fill-rule="nonzero"/></svg>