<svg xmlns="http://www.w3.org/2000/svg" shape-rendering="geometricPrecision" text-rendering="geometricPrecision" image-rendering="optimizeQuality" fill-rule="evenodd" clip-rule="evenodd" viewBox="0 0 513 357.071"><path fill="#fff" fill-rule="nonzero" d="M28.477.32h456.044c15.488 0 28.159 12.672 28.159 28.16v300.111c0 15.488-12.671 28.16-28.159 28.16H28.477c-15.486 0-28.157-12.672-28.157-28.16V28.48C.32 12.992 12.991.32 28.477.32z"/><path fill="#063" fill-rule="nonzero" d="M256.5.32v356.431H28.477c-15.486 0-28.157-12.672-28.157-28.16V28.48C.32 12.992 12.991.32 28.477.32H256.5z"/><path fill="#D21034" fill-rule="nonzero" d="M333.671 133.98c-15.901-27.561-45.339-44.554-77.171-44.554-49.205 0-89.109 39.904-89.109 89.11 0 49.205 39.904 89.109 89.109 89.109 31.832 0 61.26-16.982 77.176-44.55a71.34 71.34 0 01-55.654 26.728c-39.364 0-71.287-31.923-71.287-71.287 0-39.365 31.923-71.288 71.287-71.288a71.306 71.306 0 0155.649 26.736v-.004zm3.43 44.556l-80.601-26.19 49.814 68.563v-84.747L256.5 204.725l80.601-26.189z"/><path fill="#CCC" fill-rule="nonzero" d="M28.48 0h456.04c7.833 0 14.953 3.204 20.115 8.365C509.796 13.527 513 20.647 513 28.479v300.112c0 7.832-3.204 14.953-8.365 20.115-5.162 5.161-12.282 8.365-20.115 8.365H28.48c-7.833 0-14.953-3.204-20.115-8.365C3.204 343.544 0 336.423 0 328.591V28.479c0-7.832 3.204-14.952 8.365-20.114C13.527 3.204 20.647 0 28.48 0zm456.04.641H28.48c-7.656 0-14.616 3.132-19.661 8.178C3.773 13.864.641 20.824.641 28.479v300.112c0 7.656 3.132 14.616 8.178 19.661 5.045 5.046 12.005 8.178 19.661 8.178h456.04c7.656 0 14.616-3.132 19.661-8.178 5.046-5.045 8.178-12.005 8.178-19.661V28.479c0-7.655-3.132-14.615-8.178-19.66C499.136 3.773 492.176.641 484.52.641z"/></svg>