<svg xmlns="http://www.w3.org/2000/svg" shape-rendering="geometricPrecision" text-rendering="geometricPrecision" image-rendering="optimizeQuality" fill-rule="evenodd" clip-rule="evenodd" viewBox="0 0 512 356.18"><path fill="#00ABC2" fill-rule="nonzero" d="M28.137 0H483.86C499.337 0 512 12.663 512 28.14v299.9c0 15.477-12.663 28.14-28.14 28.14H28.137C12.663 356.18 0 343.517 0 328.04V28.14C0 12.663 12.663 0 28.137 0z"/><path fill="#FFEC2D" fill-rule="nonzero" d="M321.259 269.331c-2.581 1.549-4.55-1.198-6.708-2.022-1.54.837-1.684 3.636-3.123 4.962-1.722 1.96-3.833-.547-3.676-2.481-2.059 1.736-3.101 5.671-6.432 5.145-1.578-1.287-2.75-3.989-3.955-.913-.983 1.504-3.601 3.644-4.957 1.373-.42-2.005-1.425-4.363-2.516-1.178-.749 2.253-3.152 3.91-5.477 2.924-1.273-1.041 1.02-4.89-.6-4.615-2.423 1.601-3.83 5.577-7.21 5.258-1.313-1.473.796-3.969-.643-5.604-1.699 2.181-3.585 5.374-6.524 5.604-1.421-1.151.056-4.452-.851-4.941-3.016 1.809-6.198 5.032-9.992 4.023 1.479-5.654 7.655-7.638 12.849-8.079 8.937-1.098 18.338.921 26.937-2.304 1.389-.845 4.755-2.044 3.556-4.005-1.061-1.548 2.762-.943 3.129-2.751-.227-2.29 1.755-1.975 3.692-2.176 8.682-.374 17.259 1.454 25.915 1.765.654 4.218-4.025 7.18-7.792 5.877-1.799.292-4.497-4.137-3.968-.915-.363 1.691-.109 3.924-1.654 5.054v-.001zm-48.584-32.435l-4.25-.254c-15.657-.923-30.998-6.215-43.924-15.081-15.696-10.831-27.741-26.97-33.105-45.321-.943-2.708-1.158-5.835-2.193-8.368-1.28-1.053-3.24-.525-3.448 1.216-.902 5.305.456 10.678 1.378 15.896-4.177-6.21-5.085-13.823-7.167-20.857-.693-1.29-.359-3.996-2.472-3.675-2.517-.076-2.636 2.731-2.737 4.587.111 9.574 4.689 18.332 8.976 26.653-5.032-4.245-8.005-10.301-12.045-15.397-1.043-1.766-3.083-3.169-5.139-2.139-2.057.721-.918 3.172-.23 4.527 3.84 7.515 9.071 14.254 14.566 20.634.442.811 3.764 3.045 1.654 2.022-5.947-3.139-10.259-8.506-15.034-13.104-.97-1.81-4.654-1.459-4.353.884 4.376 7.018 10.435 12.832 16.679 18.189.763 1.096 3.819 2.353 3.251 3.12-4.283.68-7.18-3.69-11.183-4.219-1.381.298.33 2.703.901 3.583 5.143 5.477 12.367 8.249 19.111 11.21-2.365 1.002-5.034.212-7.518.212-.977.26-4.41-.995-3.574.562 3.626 4.088 9.679 2.728 14.308 4.647-1.132.952-2.706 1.156-4.122 1.399-1.125.468-3.886.09-4.056 1.173 2.638 1.806 6.072 1.441 9.066 2.254 2.969.183 1.663.795-.443 1.299-1.119.486-3.144.531-3.678 1.484 3.485 2.178 7.815 2.439 11.778 3.233-1.909.829-4.039 1.063-5.88 2.021 4.199 1.548 8.324 3.284 12.421 5.081 7.906 3.517 16.295 6.087 24.974 6.588-2.987-.565-5.902-1.463-8.783-2.426-7.238-2.454-14.563-5.001-21.17-8.876 1.479-1.137 3.249-1.823 4.686-3.032-2.863-.099-5.722-1.002-8.23-2.392-2.683-.966.47-2.189 1.484-3.22-.202-1.012-2.769-1.154-3.912-1.739-1.808.05-2.333-2.171-.919-3.123 2.061-1.031-.931-1.651-1.837-2.022-1.564-.85.295-2.772-.46-3.767-3.689-.59-6.71-2.936-9.527-5.232.522-.549 3.204-.43 4.566-.649a29.989 29.989 0 01-7.285-7.573c.727-.547 3.337-.086 4.804-.237-.298-3.626-2.452-6.863-4.604-9.699.214-.945 2.593-.879 3.544-.202 1.748 1.571 1.101-1.512 2.53-1.859 1.503 1.12 3.085 2.143 4.427 3.464 7.037 6.054 11.162 14.765 18.364 20.635 3.371 2.874 7.596 4.3 11.788 5.439 4.592 2.732 7.948 7.103 12.058 10.469 3.907 3.602 9.398 4.068 14.447 4.338 6.118.292 13.11.146 17.934 4.535 1.602-2.026 2.336-4.627 3.583-6.891zm49.589-83.686c0-26.468-21.457-47.925-47.925-47.925-26.468 0-47.925 21.457-47.925 47.925 0 26.468 21.457 47.925 47.925 47.925 26.468 0 47.925-21.457 47.925-47.925zm-58.55-53.414c2.788-.591 3.489-2.546 3.072-4.643-.556-2.794-7.047-15.34-7.047-15.34s-1.195 14.075-.639 16.869c.417 2.096 1.819 3.669 4.614 3.114zm-42.79 64.039c-.59-2.788-2.546-3.488-4.642-3.072-2.795.556-15.34 7.047-15.34 7.047s14.074 1.195 16.869.639c2.096-.417 3.669-1.819 3.113-4.614zm64.04 42.79c-2.788.59-3.488 2.545-3.072 4.642.556 2.794 7.046 15.34 7.046 15.34s1.196-14.075.64-16.869c-.417-2.096-1.819-3.669-4.614-3.113zm42.79-64.04c.59 2.788 2.546 3.489 4.642 3.072 2.794-.556 15.34-7.046 15.34-7.046s-14.074-1.196-16.869-.64c-2.096.418-3.669 1.82-3.113 4.614zm-83.672-34.658c2.349-1.612 2.248-3.687 1.061-5.464-1.583-2.369-12.38-11.476-12.38-11.476s4.282 13.461 5.865 15.83c1.187 1.777 3.085 2.694 5.454 1.11zm-15.026 75.54c-1.613-2.35-3.687-2.248-5.464-1.061-2.369 1.583-11.476 12.38-11.476 12.38s13.46-4.281 15.83-5.865c1.776-1.187 2.693-3.085 1.11-5.454zm75.54 15.026c-2.35 1.612-2.249 3.687-1.061 5.464 1.583 2.369 12.38 11.476 12.38 11.476s-4.281-13.46-5.865-15.83c-1.187-1.777-3.085-2.694-5.454-1.11zm15.026-75.54c1.612 2.35 3.687 2.249 5.464 1.061 2.369-1.583 11.476-12.38 11.476-12.38s-13.46 4.282-15.83 5.865c-1.777 1.187-2.694 3.085-1.11 5.454zm-90.566 0c1.554-2.389.666-4.267-1.11-5.454-2.37-1.583-15.83-5.865-15.83-5.865s9.107 10.797 11.476 12.381c1.777 1.187 3.881 1.308 5.464-1.061v-.001zm15.026 75.54c-2.389-1.554-4.267-.667-5.454 1.11-1.583 2.37-5.865 15.83-5.865 15.83s10.797-9.107 12.38-11.476c1.188-1.777 1.308-3.881-1.061-5.464zm75.54-15.026c-1.554 2.389-.667 4.267 1.11 5.454 2.37 1.584 15.83 5.865 15.83 5.865s-9.107-10.797-11.476-12.38c-1.777-1.187-3.881-1.308-5.464 1.061zm-15.026-75.54c2.389 1.554 4.267.667 5.454-1.11 1.584-2.369 5.865-15.83 5.865-15.83s-10.797 9.107-12.38 11.476c-1.188 1.778-1.308 3.882 1.061 5.464zm-83.672 34.658c.521-2.801-1.017-4.197-3.113-4.614-2.795-.556-16.869.64-16.869.64s12.545 6.49 15.34 7.046c2.096.417 4.086-.277 4.642-3.072zm42.79 64.04c-2.802-.522-4.197 1.017-4.614 3.113-.556 2.794.639 16.869.639 16.869s6.491-12.546 7.047-15.34c.417-2.097-.277-4.086-3.072-4.642zm64.04-42.79c-.521 2.802 1.017 4.197 3.113 4.614 2.795.556 16.869-.639 16.869-.639s-12.546-6.491-15.34-7.046c-2.096-.417-4.086.276-4.642 3.071zm-42.79-64.039c2.801.521 4.197-1.018 4.614-3.114.556-2.794-.64-16.869-.64-16.869s-6.49 12.546-7.046 15.34c-.416 2.097.277 4.086 3.072 4.643zm-31.466 3.099c2.619-1.124 2.924-3.178 2.107-5.152-1.091-2.633-9.904-13.671-9.904-13.671s1.574 14.037 2.664 16.669c.818 1.975 2.5 3.244 5.133 2.154zm-29.474 71.156c-1.124-2.618-3.178-2.924-5.152-2.106-2.633 1.09-13.671 9.903-13.671 9.903s14.037-1.574 16.669-2.664c1.975-.818 3.244-2.5 2.154-5.133zm71.156 29.474c-2.618 1.124-2.924 3.178-2.106 5.152 1.09 2.633 9.903 13.671 9.903 13.671s-1.573-14.037-2.664-16.669c-.818-1.975-2.5-3.244-5.133-2.154zm29.474-71.156c1.124 2.619 3.178 2.925 5.153 2.107 2.632-1.091 13.671-9.904 13.671-9.904s-14.038 1.574-16.67 2.664c-1.974.818-3.244 2.5-2.154 5.133zM235.829 114.7c1.99-2.04 1.486-4.055-.025-5.566-2.015-2.015-14.381-8.84-14.381-8.84s6.825 12.366 8.84 14.381c1.511 1.512 3.552 2.041 5.566.026v-.001zm0 77.02c-2.04-1.99-4.055-1.486-5.566.025-2.015 2.015-8.84 14.381-8.84 14.381s12.366-6.825 14.381-8.84c1.512-1.511 2.04-3.551.025-5.566zm77.02 0c-1.99 2.04-1.486 4.055.025 5.566 2.015 2.015 14.381 8.84 14.381 8.84s-6.825-12.366-8.84-14.381c-1.511-1.511-3.551-2.04-5.566-.025zm0-77.02c2.04 1.99 4.055 1.487 5.566-.025 2.015-2.015 8.84-14.381 8.84-14.381s-12.366 6.825-14.381 8.84c-1.511 1.512-2.04 3.552-.025 5.566zm-88.825 17.669c1.057-2.646-.179-4.315-2.154-5.133-2.632-1.09-16.67-2.664-16.67-2.664s11.039 8.813 13.672 9.904c1.974.818 4.061.526 5.152-2.107zm29.474 71.156c-2.646-1.057-4.315.179-5.133 2.154-1.09 2.632-2.664 16.67-2.664 16.67s8.813-11.039 9.904-13.671c.818-1.975.525-4.062-2.107-5.153zm71.156-29.474c-1.057 2.647.18 4.315 2.154 5.133 2.633 1.091 16.67 2.664 16.67 2.664s-11.039-8.813-13.671-9.903c-1.975-.818-4.062-.526-5.153 2.106zm-29.474-71.156c2.647 1.058 4.315-.179 5.133-2.154 1.091-2.632 2.664-16.669 2.664-16.669s-8.813 11.038-9.903 13.67c-.818 1.975-.526 4.062 2.106 5.153zm-75.302 50.315c-.036-2.849-1.817-3.918-3.953-3.918-2.85 0-16.421 3.918-16.421 3.918s13.571 3.918 16.42 3.918c2.137 0 3.954-1.068 3.954-3.918zm54.461 54.461c-2.849.036-3.918 1.817-3.918 3.954 0 2.849 3.918 16.42 3.918 16.42s3.918-13.571 3.918-16.42c0-2.137-1.069-3.954-3.918-3.954zM328.8 153.21c.036 2.85 1.817 3.918 3.954 3.918 2.849 0 16.42-3.918 16.42-3.918s-13.571-3.918-16.42-3.918c-2.137 0-3.954 1.069-3.954 3.918zm-54.461-54.461c2.849-.035 3.918-1.816 3.918-3.953 0-2.849-3.918-16.42-3.918-16.42s-3.918 13.57-3.918 16.42c0 2.137 1.069 3.953 3.918 3.953zm-20.696 161.633a.844.844 0 00-.95-.836c6.297-2.168 11.793-5.954 17.211-9.737 3.284-2.717 6.132-6.242 10.542-7.124 8.604-2.601 17.75-2.285 26.386-4.686 6.578-9.004 17.748-12.217 27.105-17.392 2.101-.654 2.913-2.383 3.584-4.292 3.572-5.638 8.438-10.635 14.193-14.048 2.722-1.487 5.97-2.344 9.053-1.664-.221 3.671-2.327 6.925-4.87 9.464 2.081-.046 3.87-1.36 5.972-1.286.721 3.768-3.348 5.739-5.513 8.085 1.206.28 5.825.63 3.308 1.838-3.208 2.226-6.871 3.754-9.832 6.339 2.733.491 3.044 1.072.266 2.06-1.504 1.019-4.395 1.376-4.675 3.361 2.064 1.269-.951 2.528-2.114 2.941-2.223.518-4.558 1.483-1.605 3.172-1.117 1.688-3.514 2.048-5.47 1.881.594 1.913 1.453 4.053-1.03 4.896-5.565 4.207-12.096 7.267-19.091 7.967 8.739.672 17.74-.95 25.208-5.702.986-1.166 6.155-2.419 3.264-3.399-1.361-.566-4.28-1.196-4.478-2.233 4.045-2.496 9.142-1.609 13.493-3.091.113-1.409-3.31-1.017-4.586-1.338-3.043-.249-2.864-1.025.07-1.313 3.712-.983 7.916-1.177 11.039-3.597-2.542-1.178-5.74-.141-8.453-1.103 4.599-2.012 10.024-2.215 14.15-5.237 1.879-2.091-2.408-1.438-3.657-1.387-2.547.444-3.724-.775-.831-1.834 4.941-3.643 11.197-6.009 14.667-11.29.822-1.182 1.935-4.744-.687-3.463-3.448 1.147-6.482 5.023-10.411 3.824 7.741-6 15.107-12.83 20.398-21.132.273-2.395-3.485-2.654-4.464-.774-4.973 4.792-9.475 10.449-15.842 13.453 6.099-5.886 11.14-12.855 15.539-20.079.943-2.148 3.478-4.732 2.103-7.117-2.218-1.836-4.992-.156-6.144 2.041-3.866 5.047-6.802 10.938-11.774 15.048 4.353-8.306 8.859-17.149 8.969-26.73-.013-1.973-.409-4.877-3.088-4.509-2.123.38-1.619 3.559-2.495 5.166-1.927 6.546-2.832 13.635-6.785 19.366.889-5.319 2.445-10.864 1.251-16.235-.558-2.401-4.435-1.368-3.936 1.008-4.631 23.458-20.372 43.975-40.958 55.843-9.426 5.333-19.954 8.771-30.666 10.33-2.881.631-5.998.261-8.752 1.243-6.674 5.118-10.714 13.68-19.164 16.362-3.787 1.881-8.725 2.263-11.433 5.782-.234.449-.283.972-.274 1.47 1.835 1.681 3.17.003 4.819-.909a.842.842 0 101.438.597zm12.146-3.355c-1.283.071-2.529.237-3.752.629-1.675.225-3.278.807-4.939 1.08l-.666.107-1.115.107c.071.309.118.617.118.926 0 .321-.035.629-.118.891-.072.249-.297.558-.476.748-.237.261-.486.486-.783.629-.285.142-.606.201-.926.226-.321.011-.653 0-.962-.119-.321-.107-.618-.309-.891-.547a7.489 7.489 0 01-.997.178 4.075 4.075 0 01-.937 0 9.487 9.487 0 01-.998-.332 5.798 5.798 0 01-.926-.487c-1.211.712-2.565 1.389-3.301 2.636-.415.57-.498 1.223-.593 1.899-.06.832.154 1.71.51 2.482.131.225.238-.819.641-.961.677-.559 1.52-.962 2.375-1.188.724-.368.629.024.332.594-.071.297-.474 1.425.072.855 2.41-1.069 5.081-1.283 7.682-1.484 3.775-.392 7.562-.475 11.35-.523l10.685.225c1.699.048 3.408.428 5.082.143.404-.107 1.033-.13 1.271-.368-.76-.439-1.651-.451-2.493-.558h-6.792c-1.888-.19-3.858-.214-5.64-.926-.475-.19-.914-.641-1.365-.155a8.095 8.095 0 01-2.113.452c-1.247.095-2.494-.167-3.645-.63.831-1.151 1.828-2.161 2.743-3.229a28.625 28.625 0 01-2.185-.451c1.294-.891 2.493-1.9 3.752-2.849zM37.64 25.964c-.164-.136-3.445-2.834-4.579-1.428-1.401 1.74 2.53 8.673 4.586 13.75 2.055-5.077 5.987-12.01 4.585-13.75-1.133-1.406-4.414 1.292-4.578 1.428l-.004.006h-.006l-.004-.006zm.007 95.825c1.606-4.082 5.638-6.408 9.357-6.908-3.719-.5-7.751-2.826-9.357-6.909-1.607 4.083-5.638 6.409-9.357 6.909 3.719.5 7.75 2.826 9.357 6.908zm12.672-6.908c5.689.665 8.7 4.496 8.7 9.371 0 3.045-.558 4.955-1.961 7.869l-15.727 32.646c-.55 1.135-.727 2.428-.727 4.323 0 2.927 2.839 5.319 5.815 5.392 2.714.068 5.67-2.529 5.67-5.489 0-3.595-1.865-5.198-3.78-5.198-2.356 0-3.296.969-3.296 2.623 0 1.153.557 1.652 1.357 1.652 2.021 0 1.454-2.721 1.454-2.721 1.004.22 1.829 1.246 1.357 2.527a3.64 3.64 0 011.963 1.166c-.542.525-1.163.931-1.962 1.068.473 1.563-.16 2.326-1.527 2.648.276-.601.285-1.154.194-1.676-2.153.612-5.452-.362-5.452-4.08 0-3.692 2.562-6.801 7.366-6.024-1.142-.546-1.724-1.665-1.841-2.915.872.34 1.841.388 1.841.388-.561-.99-1.342-1.844-1.308-3.788.89.405 1.718 1.155 2.859.68-1.792-3.525.41-8.374 6.009-9.522-2.049 2.403-3.053 4.996-3.053 7.579 0 8.369 2.326 9.775 2.326 15.593 0 2.435-1.251 5.063-3.731 6.85v-.097c1.639.439 2.689 1.246 3.293 2.343-3.745 1.062-9.19 1.042-12.113-.108-3.36-.389-5.706-2.967-6.397-4.275l-.001-.002-.001.002c-.691 1.308-3.037 3.886-6.397 4.275-2.923 1.15-8.367 1.17-12.112.108.603-1.097 1.653-1.904 3.293-2.343v.097c-2.481-1.787-3.732-4.415-3.732-6.85 0-5.818 2.326-7.224 2.326-15.593 0-2.583-1.003-5.176-3.053-7.579 5.6 1.148 7.801 5.997 6.009 9.522 1.142.475 1.969-.275 2.86-.68.033 1.944-.747 2.798-1.309 3.788 0 0 .969-.048 1.841-.388-.117 1.25-.698 2.369-1.841 2.915 4.804-.777 7.366 2.332 7.366 6.024 0 3.718-3.299 4.692-5.452 4.08-.091.522-.082 1.075.194 1.676-1.367-.322-1.999-1.085-1.526-2.648-.799-.137-1.421-.543-1.963-1.068a3.64 3.64 0 011.963-1.166c-.472-1.281.353-2.307 1.357-2.527 0 0-.567 2.721 1.454 2.721.8 0 1.356-.499 1.356-1.652 0-1.654-.938-2.623-3.295-2.623-1.915 0-3.78 1.603-3.78 5.198 0 2.96 2.957 5.557 5.67 5.489 2.977-.073 5.815-2.465 5.815-5.392 0-1.895-.177-3.188-.726-4.323l-15.727-32.646c-1.404-2.914-1.962-4.824-1.962-7.869 0-4.875 3.012-8.706 8.7-9.371-5.688-.665-8.7-4.496-8.7-9.371 0-3.045.558-4.955 1.962-7.869l15.727-32.646c.549-1.135.726-2.428.726-4.323 0-2.927-2.838-5.319-5.815-5.393-2.713-.067-5.67 2.53-5.67 5.49 0 3.595 1.865 5.198 3.78 5.198 2.357 0 3.295-.969 3.295-2.624 0-1.152-.556-1.651-1.356-1.651-2.021 0-1.454 2.721-1.454 2.721-1.004-.22-1.829-1.246-1.357-2.527a3.64 3.64 0 01-1.963-1.166c.542-.525 1.164-.93 1.963-1.068-.473-1.563.159-2.327 1.526-2.648-.276.601-.285 1.154-.194 1.676 2.153-.612 5.452.362 5.452 4.08 0 3.692-2.562 6.801-7.366 6.024 1.143.547 1.724 1.665 1.841 2.915-.872-.34-1.841-.388-1.841-.388.562.99 1.342 1.844 1.309 3.788-.891-.405-1.718-1.154-2.86-.68 1.792 3.525-.409 8.375-6.009 9.522 2.05-2.403 3.053-4.996 3.053-7.579 0-8.369-2.326-9.775-2.326-15.594 0-2.434 1.251-5.063 3.732-6.849v.097c-1.64-.439-2.69-1.246-3.293-2.343l.003-.001h-.002c1.132-1.522 1.869-1.97 3.777-2.092-2.124-1.103-4.288-3.498-4.288-7.225 0-5.748 2.366-8.117 2.366-14.597 0-3.595-2.948-8.172-2.948-8.172 5.211.522 7.793 5.346 6.324 9.202.83.119 1.582-.067 2.229-.68.381 1.068-.221 2.309-1.026 3.378.649.347 1.125.139 2.16-.075-.098 1.101-.758 2.271-2.372 3.372 4.684-1.216 7.566 2.049 7.566 5.467 0 2.582-1.809 4.432-3.577 4.432-.572 0-1.411-.235-1.884-.589-.334.71-.162 1.661.182 2.372-1.296-.343-2.119-1.112-1.534-2.715-.995-.091-1.787-.428-2.326-1.068.546-.699 1.374-1.102 2.326-1.069-.724-1.496.083-2.333 1.26-3.012 0 0-.748 3.012 1.163 3.012.86 0 1.643-.28 1.643-1.547 0-1.103-.964-2.631-3.194-2.534-2.229.097-4.036 1.537-4.036 5.096 0 3.283 2.648 4.915 6.138 5.021 3.146.097 5.52-1.607 5.52-4.853 0-4.32-6.236-14.167-6.236-18.016 0-2.889 2.597-4.501 5.139-4.501 1.581 0 3.043.751 4.137 1.533 1.094-.782 2.556-1.533 4.137-1.533 2.542 0 5.139 1.612 5.139 4.501 0 3.849-6.236 13.696-6.236 18.016 0 3.246 2.374 4.95 5.52 4.853 3.49-.106 6.138-1.738 6.138-5.021 0-3.559-1.807-4.999-4.037-5.096-2.229-.097-3.193 1.431-3.193 2.534 0 1.267.783 1.547 1.643 1.547 1.911 0 1.163-3.012 1.163-3.012 1.177.679 1.984 1.516 1.26 3.012.952-.033 1.78.37 2.326 1.069-.539.64-1.331.977-2.326 1.068.585 1.603-.238 2.372-1.534 2.715.344-.711.516-1.662.182-2.372-.473.354-1.312.589-1.884.589-1.768 0-3.577-1.85-3.577-4.432 0-3.418 2.882-6.683 7.566-5.467-1.614-1.101-2.274-2.271-2.372-3.372 1.034.214 1.511.422 2.161.075-.806-1.069-1.409-2.31-1.027-3.378.647.613 1.399.799 2.229.68-1.469-3.856 1.113-8.68 6.324-9.202 0 0-2.948 4.577-2.948 8.172 0 6.48 2.366 8.849 2.366 14.597 0 3.727-2.164 6.122-4.288 7.225 1.908.122 2.645.57 3.777 2.092h-.001l.003.001c-.604 1.097-1.654 1.904-3.293 2.343v-.097c2.48 1.786 3.731 4.415 3.731 6.849 0 5.819-2.326 7.225-2.326 15.594 0 2.583 1.004 5.176 3.053 7.579-5.599-1.147-7.801-5.997-6.009-9.522-1.141-.474-1.969.275-2.859.68-.034-1.944.747-2.798 1.308-3.788 0 0-.969.048-1.841.388.117-1.25.699-2.368 1.841-2.915-4.804.777-7.366-2.332-7.366-6.024 0-3.718 3.299-4.692 5.452-4.08.091-.522.082-1.075-.194-1.676 1.367.321 2 1.085 1.527 2.648.799.138 1.42.543 1.962 1.068a3.64 3.64 0 01-1.963 1.166c.472 1.281-.353 2.307-1.357 2.527 0 0 .567-2.721-1.454-2.721-.8 0-1.357.499-1.357 1.651 0 1.655.94 2.624 3.296 2.624 1.915 0 3.78-1.603 3.78-5.198 0-2.96-2.956-5.557-5.67-5.49-2.976.074-5.815 2.466-5.815 5.393 0 1.895.177 3.188.727 4.323l15.727 32.646c1.403 2.914 1.961 4.824 1.961 7.869 0 4.875-3.011 8.706-8.7 9.371zm-12.672 48.528l.001-.001L53.64 129.5c.694-1.484 1.115-3.058 1.115-4.761 0-4.285-3.925-5.781-6.155-5.781-2.665 0-5.379 2.03-5.379 4.566 0 1.607.873 2.575 2.132 2.575 3.013 0 2.83-2.563 2.229-4.178 1.875.843 2.965 2.348 2.665 3.935 1.062.146 2.072.649 3.005 1.7-.734.926-1.629 1.627-3.005 1.652.602 2.462-1.047 3.503-2.665 4.08.512-1.807.848-3.886-2.229-3.886-2.244 0-4.009-.389-5.04-1.846l-.242 9.619c-.13 2.884 3.86 2.801 6.396 1.943-.957 3.322-2.92 5.118-7.463 4.664 1.103.461 2.278 1.498 2.278 3.497 0 2.704-2.194 5.7-3.634 6.586v.001h-.001v-.001c-1.441-.886-3.634-3.882-3.635-6.586 0-1.999 1.175-3.036 2.278-3.497-4.543.454-6.506-1.342-7.463-4.664 2.536.858 6.526.941 6.396-1.943l-.242-9.619c-1.03 1.457-2.796 1.846-5.04 1.846-3.077 0-2.741 2.079-2.229 3.886-1.618-.577-3.266-1.618-2.665-4.08-1.376-.025-2.271-.726-3.005-1.652.933-1.051 1.944-1.554 3.005-1.7-.3-1.587.79-3.092 2.665-3.935-.6 1.615-.783 4.178 2.229 4.178 1.26 0 2.132-.968 2.132-2.575 0-2.536-2.714-4.566-5.379-4.566-2.229 0-6.155 1.496-6.155 5.781 0 1.703.422 3.277 1.115 4.761l15.992 33.908.001.001zM30.669 51.577c.203.063.396.131.58.204 3.36.389 5.706 2.967 6.397 4.275l.001.002.001-.002c.691-1.308 3.037-3.886 6.397-4.275a8.18 8.18 0 01.58-.204c-3.029-.696-5.577-1.834-6.978-4.195-1.401 2.361-3.949 3.499-6.978 4.195zm6.978 14.776l-.001.001-15.992 33.909c-.693 1.483-1.115 3.057-1.115 4.76 0 4.286 3.926 5.781 6.155 5.781 2.665 0 5.379-2.03 5.379-4.566 0-1.607-.872-2.575-2.132-2.575-3.012 0-2.829 2.563-2.229 4.178-1.875-.843-2.965-2.348-2.665-3.935-1.061-.145-2.072-.649-3.005-1.7.734-.926 1.629-1.627 3.005-1.652-.601-2.462 1.047-3.503 2.665-4.08-.512 1.807-.848 3.886 2.229 3.886 2.244 0 4.01.389 5.04 1.846l.242-9.618c.13-2.885-3.86-2.803-6.396-1.944.957-3.322 2.92-5.118 7.463-4.663-1.103-.462-2.278-1.499-2.278-3.498.001-2.705 2.194-5.7 3.635-6.586v-.001h.001v.001c1.44.886 3.634 3.881 3.634 6.586 0 1.999-1.175 3.036-2.278 3.498 4.543-.455 6.506 1.341 7.463 4.663-2.536-.859-6.526-.941-6.396 1.944l.242 9.618c1.031-1.457 2.796-1.846 5.04-1.846 3.077 0 2.741-2.079 2.229-3.886 1.618.577 3.267 1.618 2.665 4.08 1.376.025 2.271.726 3.005 1.652-.933 1.051-1.943 1.555-3.005 1.7.3 1.587-.79 3.092-2.665 3.935.601-1.615.784-4.178-2.229-4.178-1.259 0-2.132.968-2.132 2.575 0 2.536 2.714 4.566 5.379 4.566 2.23 0 6.155-1.495 6.155-5.781 0-1.703-.421-3.277-1.115-4.76L37.648 66.354l-.001-.001zM37.64 330.215c-.16.133-3.444 2.836-4.579 1.428-1.401-1.74 2.53-8.673 4.586-13.749 2.055 5.076 5.987 12.009 4.585 13.749-1.134 1.408-4.419-1.295-4.578-1.428l-.004-.005-.003-.001-.003.001-.004.005zm.007-21.418c-1.675-2.82-4.986-3.896-8.8-4.557-3.694-.641-9.709.268-9.709.268 1.132 1.522 1.869 1.97 3.777 2.091-2.124 1.103-4.288 3.498-4.288 7.225 0 5.748 2.366 8.118 2.366 14.598 0 3.595-2.948 8.171-2.948 8.171 5.211-.521 7.793-5.346 6.324-9.201.83-.12 1.582.067 2.229.68.381-1.069-.221-2.309-1.026-3.378.649-.348 1.125-.139 2.16.075-.098-1.102-.758-2.272-2.372-3.373 4.684 1.217 7.566-2.048 7.566-5.466 0-2.582-1.809-4.432-3.577-4.432-.572 0-1.411.235-1.884.589-.334-.711-.162-1.662.182-2.372-1.296.342-2.119 1.112-1.534 2.714-.995.092-1.787.428-2.326 1.069.546.699 1.374 1.101 2.326 1.068-.724 1.496.083 2.334 1.26 3.013 0 0-.748-3.013 1.163-3.013.86 0 1.643.281 1.643 1.547 0 1.103-.964 2.631-3.194 2.534-2.229-.097-4.036-1.537-4.036-5.095 0-3.283 2.648-4.916 6.138-5.021 3.146-.098 5.52 1.607 5.52 4.853 0 4.319-6.236 14.166-6.236 18.016 0 2.888 2.597 4.5 5.139 4.5 1.581 0 3.043-.751 4.137-1.532 1.094.781 2.556 1.532 4.137 1.532 2.542 0 5.139-1.612 5.139-4.5 0-3.85-6.236-13.697-6.236-18.016 0-3.246 2.374-4.951 5.52-4.853 3.49.105 6.138 1.738 6.138 5.021 0 3.558-1.807 4.998-4.037 5.095-2.229.097-3.193-1.431-3.193-2.534 0-1.266.783-1.547 1.643-1.547 1.911 0 1.163 3.013 1.163 3.013 1.177-.679 1.984-1.517 1.26-3.013.952.033 1.78-.369 2.326-1.068-.539-.641-1.331-.977-2.326-1.069.585-1.602-.238-2.372-1.534-2.714.344.71.516 1.661.182 2.372-.473-.354-1.312-.589-1.884-.589-1.768 0-3.577 1.85-3.577 4.432 0 3.418 2.882 6.683 7.566 5.466-1.614 1.101-2.274 2.271-2.372 3.373 1.034-.214 1.511-.423 2.161-.075-.806 1.069-1.409 2.309-1.027 3.378.647-.613 1.399-.8 2.229-.68-1.469 3.855 1.113 8.68 6.324 9.201 0 0-2.948-4.576-2.948-8.171 0-6.48 2.366-8.85 2.366-14.598 0-3.727-2.164-6.122-4.288-7.225 1.908-.121 2.645-.569 3.777-2.091 0 0-6.015-.909-9.709-.268-3.814.661-7.126 1.737-8.8 4.557z"/><path fill="#FFEC2D" fill-rule="nonzero" d="M37.647 248.207c-1.826-4.64-6.784-7.011-10.856-7.011-6.862 0-10.516 4.103-10.516 9.474 0 3.044.558 4.954 1.962 7.869l15.727 32.645c.549 1.135.726 2.429.726 4.323 0 2.927-2.838 5.319-5.815 5.393-2.713.068-5.67-2.53-5.67-5.49 0-3.594 1.865-5.197 3.78-5.197 2.357 0 3.295.968 3.295 2.623 0 1.153-.556 1.651-1.356 1.651-2.021 0-1.454-2.72-1.454-2.72-1.004.22-1.829 1.246-1.357 2.526a3.653 3.653 0 00-1.963 1.166c.542.525 1.164.931 1.963 1.069-.473 1.563.159 2.326 1.526 2.647-.276-.6-.285-1.154-.194-1.675 2.153.612 5.452-.362 5.452-4.081 0-3.692-2.562-6.8-7.366-6.024 1.143-.546 1.724-1.664 1.841-2.914-.872.339-1.841.388-1.841.388.562-.99 1.342-1.844 1.309-3.789-.891.405-1.718 1.155-2.86.681 1.792-3.526-.409-8.375-6.009-9.523 2.05 2.403 3.053 4.997 3.053 7.579 0 8.369-2.326 9.775-2.326 15.594 0 2.434 1.251 5.063 3.732 6.85v-.097c-1.64.439-2.69 1.246-3.293 2.342 3.745 1.063 9.189 1.043 12.112-.107 3.36-.39 5.706-2.967 6.397-4.276l.001-.001.001.001c.691 1.309 3.037 3.886 6.397 4.276 2.923 1.15 8.368 1.17 12.113.107-.604-1.096-1.654-1.903-3.293-2.342v.097c2.48-1.787 3.731-4.416 3.731-6.85 0-5.819-2.326-7.225-2.326-15.594 0-2.582 1.004-5.176 3.053-7.579-5.599 1.148-7.801 5.997-6.009 9.523-1.141.474-1.969-.276-2.859-.681-.034 1.945.747 2.799 1.308 3.789 0 0-.969-.049-1.841-.388.117 1.25.699 2.368 1.841 2.914-4.804-.776-7.366 2.332-7.366 6.024 0 3.719 3.299 4.693 5.452 4.081.091.521.082 1.075-.194 1.675 1.367-.321 2-1.084 1.527-2.647.799-.138 1.42-.544 1.962-1.069a3.653 3.653 0 00-1.963-1.166c.472-1.28-.353-2.306-1.357-2.526 0 0 .567 2.72-1.454 2.72-.8 0-1.357-.498-1.357-1.651 0-1.655.94-2.623 3.296-2.623 1.915 0 3.78 1.603 3.78 5.197 0 2.96-2.956 5.558-5.67 5.49-2.976-.074-5.815-2.466-5.815-5.393 0-1.894.177-3.188.727-4.323l15.727-32.645c1.403-2.915 1.961-4.825 1.961-7.869 0-5.371-3.654-9.474-10.516-9.474-4.072 0-9.03 2.371-10.856 7.011zm0 41.62l-.001-.002-15.992-33.908c-.693-1.484-1.115-3.057-1.115-4.761 0-4.285 3.926-5.781 6.155-5.781 2.665 0 5.379 2.031 5.379 4.566 0 1.607-.872 2.575-2.132 2.575-3.012 0-2.829-2.562-2.229-4.177-1.875.843-2.965 2.348-2.665 3.934-1.061.146-2.072.649-3.005 1.701.734.926 1.629 1.627 3.005 1.651-.601 2.462 1.047 3.503 2.665 4.081-.512-1.807-.848-3.887 2.229-3.887 2.244 0 4.01-.388 5.04-1.846l.242 9.619c.13 2.884-3.86 2.802-6.396 1.943.957 3.323 2.92 5.119 7.463 4.664-1.103.461-2.278 1.499-2.278 3.498.001 2.704 2.194 5.699 3.635 6.586h.001c1.44-.887 3.634-3.882 3.634-6.586 0-1.999-1.175-3.037-2.278-3.498 4.543.455 6.506-1.341 7.463-4.664-2.536.859-6.526.941-6.396-1.943l.242-9.619c1.031 1.458 2.796 1.846 5.04 1.846 3.077 0 2.741 2.08 2.229 3.887 1.618-.578 3.267-1.619 2.665-4.081 1.376-.024 2.271-.725 3.005-1.651-.933-1.052-1.943-1.555-3.005-1.701.3-1.586-.79-3.091-2.665-3.934.601 1.615.784 4.177-2.229 4.177-1.259 0-2.132-.968-2.132-2.575 0-2.535 2.714-4.566 5.379-4.566 2.23 0 6.155 1.496 6.155 5.781 0 1.704-.421 3.277-1.115 4.761l-15.992 33.908-.001.002z"/><path fill="#FFEC2D" fill-rule="nonzero" d="M37.647 234.39c-1.826 4.64-6.784 7.011-10.856 7.011-6.862 0-10.516-4.103-10.516-9.474 0-3.044.558-4.955 1.962-7.869l15.727-32.645c.549-1.136.726-2.429.726-4.324 0-2.926-2.838-5.319-5.815-5.392-2.713-.068-5.67 2.529-5.67 5.489 0 3.596 1.865 5.198 3.78 5.198 2.357 0 3.295-.969 3.295-2.623 0-1.153-.556-1.652-1.356-1.652-2.021 0-1.454 2.721-1.454 2.721-1.004-.22-1.829-1.246-1.357-2.526a3.653 3.653 0 01-1.963-1.166c.542-.526 1.164-.931 1.963-1.069-.473-1.563.159-2.326 1.526-2.647-.276.601-.285 1.154-.194 1.676 2.153-.613 5.452.361 5.452 4.08 0 3.692-2.562 6.8-7.366 6.024 1.143.546 1.724 1.664 1.841 2.914-.872-.34-1.841-.388-1.841-.388.562.99 1.342 1.844 1.309 3.789-.891-.405-1.718-1.155-2.86-.681 1.792 3.526-.409 8.375-6.009 9.522 2.05-2.402 3.053-4.996 3.053-7.578 0-8.369-2.326-9.776-2.326-15.594 0-2.435 1.251-5.063 3.732-6.85v.097c-1.64-.439-2.69-1.246-3.293-2.343 3.745-1.062 9.189-1.042 12.112.108 3.36.389 5.706 2.967 6.397 4.276l.001.001.001-.001c.691-1.309 3.037-3.887 6.397-4.276 2.923-1.15 8.368-1.17 12.113-.108-.604 1.097-1.654 1.904-3.293 2.343v-.097c2.48 1.787 3.731 4.415 3.731 6.85 0 5.818-2.326 7.225-2.326 15.594 0 2.582 1.004 5.176 3.053 7.578-5.599-1.147-7.801-5.996-6.009-9.522-1.141-.474-1.969.276-2.859.681-.034-1.945.747-2.799 1.308-3.789 0 0-.969.048-1.841.388.117-1.25.699-2.368 1.841-2.914-4.804.776-7.366-2.332-7.366-6.024 0-3.719 3.299-4.693 5.452-4.08.091-.522.082-1.075-.194-1.676 1.367.321 2 1.084 1.527 2.647.799.138 1.42.543 1.962 1.069a3.653 3.653 0 01-1.963 1.166c.472 1.28-.353 2.306-1.357 2.526 0 0 .567-2.721-1.454-2.721-.8 0-1.357.499-1.357 1.652 0 1.654.94 2.623 3.296 2.623 1.915 0 3.78-1.602 3.78-5.198 0-2.96-2.956-5.557-5.67-5.489-2.976.073-5.815 2.466-5.815 5.392 0 1.895.177 3.188.727 4.324l15.727 32.645c1.403 2.914 1.961 4.825 1.961 7.869 0 5.371-3.654 9.474-10.516 9.474-4.072 0-9.03-2.371-10.856-7.011zm0-41.62l-.001.001-15.992 33.909c-.693 1.484-1.115 3.057-1.115 4.761 0 4.285 3.926 5.781 6.155 5.781 2.665 0 5.379-2.031 5.379-4.567 0-1.607-.872-2.574-2.132-2.574-3.012 0-2.829 2.563-2.229 4.177-1.875-.843-2.965-2.348-2.665-3.934-1.061-.146-2.072-.649-3.005-1.701.734-.926 1.629-1.627 3.005-1.651-.601-2.462 1.047-3.504 2.665-4.081-.512 1.807-.848 3.886 2.229 3.886 2.244 0 4.01.389 5.04 1.847l.242-9.619c.13-2.884-3.86-2.802-6.396-1.943.957-3.323 2.92-5.119 7.463-4.664-1.103-.461-2.278-1.499-2.278-3.498.001-2.704 2.194-5.7 3.635-6.586h.001c1.44.886 3.634 3.882 3.634 6.586 0 1.999-1.175 3.037-2.278 3.498 4.543-.455 6.506 1.341 7.463 4.664-2.536-.859-6.526-.941-6.396 1.943l.242 9.619c1.031-1.458 2.796-1.847 5.04-1.847 3.077 0 2.741-2.079 2.229-3.886 1.618.577 3.267 1.619 2.665 4.081 1.376.024 2.271.725 3.005 1.651-.933 1.052-1.943 1.555-3.005 1.701.3 1.586-.79 3.091-2.665 3.934.601-1.614.784-4.177-2.229-4.177-1.259 0-2.132.967-2.132 2.574 0 2.536 2.714 4.567 5.379 4.567 2.23 0 6.155-1.496 6.155-5.781 0-1.704-.421-3.277-1.115-4.761l-15.992-33.909-.001-.001z"/></svg>