<svg xmlns="http://www.w3.org/2000/svg" shape-rendering="geometricPrecision" text-rendering="geometricPrecision" image-rendering="optimizeQuality" fill-rule="evenodd" clip-rule="evenodd" viewBox="0 0 512 356.18"><g fill-rule="nonzero"><path fill="#239E46" d="M28.137 0H483.86C499.337 0 512 12.663 512 28.14v299.9c0 15.477-12.663 28.14-28.14 28.14H28.137C12.663 356.18 0 343.517 0 328.04V28.14C0 12.663 12.663 0 28.137 0z"/><path d="M512 267.137H0V28.14C0 12.663 12.663 0 28.137 0H483.86C499.337 0 512 12.663 512 28.14v238.997z"/><path fill="#E70013" d="M512 89.043H0V28.14C0 12.663 12.663 0 28.137 0H483.86C499.337 0 512 12.663 512 28.14v60.903z"/><path fill="#fff" d="M287.475 146.599c-8.056-8.052-19.184-13.033-31.475-13.033-24.589 0-44.524 19.935-44.524 44.524 0 24.589 19.935 44.523 44.524 44.523 12.291 0 23.419-4.98 31.475-13.032a38.51 38.51 0 01-22.473 7.194c-21.364 0-38.684-17.32-38.684-38.685 0-21.365 17.32-38.685 38.684-38.685a38.51 38.51 0 0122.473 7.194zm-9.825 31.491l59.884-19.457-37.011 50.939v-62.964l37.011 50.939-59.884-19.457z"/></g></svg>